<svg width="24" height="23" viewBox="0 0 24 23" fill="none" xmlns="http://www.w3.org/2000/svg">
<path d="M18.9101 18.3471V17.3193H18.2443L17.9721 17.9268L18.9101 18.3471ZM17.5605 21.359L16.9128 22.1571L17.9515 23L18.4985 21.7793L17.5605 21.359ZM13.8493 18.3471L14.497 17.549L14.2139 17.3193H13.8493V18.3471ZM4.11123 0C1.84066 0 0 1.84066 0 4.11123H2.05561C2.05561 2.97594 2.97594 2.05561 4.11123 2.05561V0ZM19.538 0H4.11123V2.05561H19.538V0ZM23.6492 4.11123C23.6492 1.84066 21.8086 0 19.538 0V2.05561C20.6733 2.05561 21.5936 2.97594 21.5936 4.11123H23.6492ZM23.6492 15.2637V4.11123H21.5936V15.2637H23.6492ZM19.538 19.3749C21.8086 19.3749 23.6492 17.5342 23.6492 15.2637H21.5936C21.5936 16.3989 20.6733 17.3193 19.538 17.3193V19.3749ZM18.9101 19.3749H19.538V17.3193H18.9101V19.3749ZM18.4985 21.7793L19.848 18.7673L17.9721 17.9268L16.6226 20.9387L18.4985 21.7793ZM13.2016 19.1451L16.9128 22.1571L18.2082 20.5609L14.497 17.549L13.2016 19.1451ZM4.11123 19.3749H13.8493V17.3193H4.11123V19.3749ZM0 15.2637C0 17.5342 1.84066 19.3749 4.11123 19.3749V17.3193C2.97594 17.3193 2.05561 16.3989 2.05561 15.2637H0ZM0 4.11123V15.2637H2.05561V4.11123H0ZM6.52854 5.81875C5.90414 5.81875 5.39796 6.32493 5.39796 6.94934H7.45357C7.45357 7.46021 7.03942 7.87436 6.52854 7.87436V5.81875ZM16.445 5.81875H6.52854V7.87436H16.445V5.81875ZM17.5756 6.94934C17.5756 6.32492 17.0694 5.81875 16.445 5.81875V7.87436C15.9341 7.87436 15.52 7.46022 15.52 6.94934H17.5756ZM16.445 8.07992C17.0694 8.07992 17.5756 7.57375 17.5756 6.94934H15.52C15.52 6.43845 15.9341 6.02431 16.445 6.02431V8.07992ZM6.52854 8.07992H16.445V6.02431H6.52854V8.07992ZM5.39796 6.94934C5.39796 7.57375 5.90414 8.07992 6.52854 8.07992V6.02431C7.03942 6.02431 7.45357 6.43846 7.45357 6.94934H5.39796ZM6.52854 11.0898C5.90415 11.0898 5.39796 11.5959 5.39796 12.2204H7.45357C7.45357 12.7312 7.03942 13.1454 6.52854 13.1454V11.0898ZM13.7458 11.0898H6.52854V13.1454H13.7458V11.0898ZM14.8764 12.2204C14.8764 11.5959 14.3702 11.0898 13.7458 11.0898V13.1454C13.2349 13.1454 12.8208 12.7312 12.8208 12.2204H14.8764ZM13.7458 13.3509C14.3702 13.3509 14.8764 12.8448 14.8764 12.2204H12.8208C12.8208 11.7095 13.2349 11.2953 13.7458 11.2953V13.3509ZM6.52854 13.3509H13.7458V11.2953H6.52854V13.3509ZM5.39796 12.2204C5.39796 12.8448 5.90414 13.3509 6.52854 13.3509V11.2953C7.03942 11.2953 7.45357 11.7095 7.45357 12.2204H5.39796Z" fill="white"/>
</svg>
