<svg width="22" height="28" viewBox="0 0 22 28" fill="none" xmlns="http://www.w3.org/2000/svg">
<path fill-rule="evenodd" clip-rule="evenodd" d="M16.7619 6.36114C16.7619 9.87431 14.1822 12.7223 11 12.7223C7.81778 12.7223 5.2381 9.87431 5.2381 6.36114C5.2381 2.84798 7.81778 0 11 0C14.1822 0 16.7619 2.84798 16.7619 6.36114ZM0.892213 27.7577C0.399457 27.7577 0 27.3583 0 26.8655C0 23.5343 0 21.8687 0.532858 20.5963C1.00157 19.4771 1.74948 18.5671 2.66939 17.9968C3.71519 17.3486 5.0842 17.3486 7.82222 17.3486H14.1778C16.9158 17.3486 18.2848 17.3486 19.3306 17.9968C20.2505 18.5671 20.9984 19.4771 21.4672 20.5963C22 21.8687 22 23.5343 22 26.8655V26.8655C22 27.3583 21.6005 27.7577 21.1078 27.7577H0.892213Z" fill="white"/>
</svg>
