<svg width="16" height="16" viewBox="0 0 16 16" fill="none" xmlns="http://www.w3.org/2000/svg">
<path d="M8.8 14.32C9.70335 14.1353 10.5152 13.6443 11.0983 12.93C11.6814 12.2158 11.9999 11.322 12 10.4V8C12.0011 7.44945 11.888 6.90466 11.668 6.4H4.332C4.11197 6.90466 3.99893 7.44945 4 8V10.4C4.00011 11.322 4.31864 12.2158 4.90172 12.93C5.48479 13.6443 6.29665 14.1353 7.2 14.32V9.6H8.8V14.32ZM2.8288 12.552C2.54492 11.8701 2.39918 11.1386 2.4 10.4H0V8.8H2.4V8C2.4 7.4856 2.4696 6.988 2.5992 6.5152L0.8288 5.4928L1.6288 4.1072L3.2448 5.04C3.2958 4.95865 3.34889 4.87862 3.404 4.8H12.596C12.6512 4.8784 12.704 4.9592 12.7552 5.04L14.3712 4.1072L15.1712 5.4928L13.4008 6.5152C13.5304 6.9872 13.6 7.4856 13.6 8V8.8H16V10.4H13.6C13.6 11.1624 13.448 11.8896 13.1712 12.552L15.1712 13.7072L14.3712 15.0928L12.3504 13.9264C11.8259 14.5747 11.163 15.0974 10.4102 15.4562C9.65743 15.815 8.83391 16.0008 8 16C7.16609 16.0008 6.34257 15.815 5.58981 15.4562C4.83704 15.0974 4.1741 14.5747 3.6496 13.9264L1.6288 15.0928L0.8288 13.7072L2.8288 12.5528V12.552ZM4.8 3.2C4.8 2.35131 5.13714 1.53737 5.73726 0.937258C6.33737 0.337142 7.15131 0 8 0C8.84869 0 9.66263 0.337142 10.2627 0.937258C10.8629 1.53737 11.2 2.35131 11.2 3.2H4.8Z" fill="white"/>
</svg>
