<svg width="14" height="16" viewBox="0 0 14 16" fill="none" xmlns="http://www.w3.org/2000/svg">
<path fill-rule="evenodd" clip-rule="evenodd" d="M13.7264 0.15423C13.8991 0.290437 13.9998 0.498306 13.9998 0.718306V3.62175C14.0001 3.63195 14.0001 3.64212 13.9998 3.65226V11.6365C13.9998 12.7472 13.0998 13.6477 11.9896 13.6477H10.5896C9.49923 13.6477 8.61529 12.7633 8.61529 11.6724C8.61529 10.5814 9.49923 9.69705 10.5896 9.69705H12.564V4.54462L5.02559 6.3303V13.0731C5.02559 14.1838 4.12556 15.0843 3.01535 15.0843H1.97434C0.88394 15.0843 0 14.1999 0 13.109C0 12.018 0.88394 11.1337 1.97434 11.1337H3.5897V5.77684C3.58949 5.76665 3.58949 5.75649 3.5897 5.74636V2.87321C3.5897 2.54107 3.8173 2.25225 4.1401 2.17474L13.1144 0.0198407C13.3282 -0.0315015 13.5537 0.0180224 13.7264 0.15423ZM5.02559 4.85398L12.564 3.06831V1.6294L5.02559 3.43951V4.85398ZM3.5897 12.5703H1.97434C1.67696 12.5703 1.43588 12.8114 1.43588 13.109C1.43588 13.4065 1.67696 13.6477 1.97434 13.6477H3.01535C3.33255 13.6477 3.5897 13.3904 3.5897 13.0731V12.5703ZM12.564 11.1337H10.5896C10.2922 11.1337 10.0512 11.3748 10.0512 11.6724C10.0512 11.9699 10.2922 12.2111 10.5896 12.2111H11.9896C12.3068 12.2111 12.564 11.9538 12.564 11.6365V11.1337Z" fill="white"/>
</svg>
