<svg width="16" height="16" viewBox="0 0 16 16" fill="none" xmlns="http://www.w3.org/2000/svg">
<path fill-rule="evenodd" clip-rule="evenodd" d="M15.9743 0.56778C16.0624 0.959641 15.8163 1.34878 15.4247 1.43695L11.6306 2.29105V7.27282H15.2651C15.6666 7.27282 15.992 7.59843 15.992 8.00008C15.992 10.1506 15.3425 12.158 13.9825 13.6353C12.6136 15.1225 10.591 16 7.99609 16C5.40117 16 3.3786 15.1225 2.00964 13.6353C0.649682 12.158 0.000157509 10.1506 0.000157509 8.00008C0.000157509 7.59843 0.325603 7.27282 0.72706 7.27282H1.45396V4.58193L0.886624 4.70965C0.494958 4.79782 0.106012 4.55163 0.0178868 4.15976C-0.0702379 3.7679 0.175831 3.37876 0.567496 3.29059L1.45396 3.09104V2.90922C1.45396 2.50756 1.77941 2.18196 2.18087 2.18196C2.53364 2.18196 2.82772 2.43338 2.89386 2.7669L4.36157 2.4365V2.18196C4.36157 1.7803 4.68702 1.45469 5.08848 1.45469C5.46567 1.45469 5.77576 1.74213 5.81187 2.11002L7.26918 1.78196V1.45469C7.26918 1.05303 7.59463 0.727424 7.99609 0.727424C8.39754 0.727424 8.72299 1.05303 8.72299 1.45469L10.1768 1.12742V0.727424C10.1768 0.325766 10.5022 0.000157588 10.9037 0.000157588C11.3052 0.000157588 11.6306 0.325766 11.6306 0.727424V0.80015L15.1055 0.0178958C15.4972 -0.070273 15.8862 0.175918 15.9743 0.56778ZM10.1768 2.61832L8.72299 2.94559V7.27282H10.1768V2.61832ZM1.4833 8.72735C1.61135 10.2887 2.15652 11.6478 3.07901 12.6499C4.13305 13.795 5.745 14.5455 7.99609 14.5455C10.2472 14.5455 11.8591 13.795 12.9132 12.6499C13.8357 11.6478 14.3808 10.2887 14.5089 8.72735H1.4833ZM2.90777 7.27282H4.36157V3.92739L2.90777 4.25466V7.27282ZM5.81538 3.60012V7.27282H7.26918V3.27286L5.81538 3.60012Z" fill="white"/>
</svg>
