<svg width="16" height="16" viewBox="0 0 16 16" fill="none" xmlns="http://www.w3.org/2000/svg">
<path d="M5.09092 8.00401C5.49258 8.00401 5.81819 8.32979 5.81819 8.73165V9.45929H6.54547C6.94713 9.45929 7.27274 9.78506 7.27274 10.1869C7.27274 10.5888 6.94713 10.9146 6.54547 10.9146H5.81819V11.6422C5.81819 12.0441 5.49258 12.3698 5.09092 12.3698C4.68926 12.3698 4.36364 12.0441 4.36364 11.6422V10.9146H3.63637C3.23471 10.9146 2.9091 10.5888 2.9091 10.1869C2.9091 9.78506 3.23471 9.45929 3.63637 9.45929H4.36364V8.73165C4.36364 8.32979 4.68926 8.00401 5.09092 8.00401Z" fill="white"/>
<path fill-rule="evenodd" clip-rule="evenodd" d="M10.9091 8.00401C9.70412 8.00401 8.72729 8.98134 8.72729 10.1869C8.72729 11.3925 9.70412 12.3698 10.9091 12.3698C12.1141 12.3698 13.0909 11.3925 13.0909 10.1869C13.0909 8.98134 12.1141 8.00401 10.9091 8.00401ZM10.1818 10.1869C10.1818 9.78506 10.5074 9.45929 10.9091 9.45929C11.3108 9.45929 11.6364 9.78506 11.6364 10.1869C11.6364 10.5888 11.3108 10.9146 10.9091 10.9146C10.5074 10.9146 10.1818 10.5888 10.1818 10.1869Z" fill="white"/>
<path fill-rule="evenodd" clip-rule="evenodd" d="M10.9091 0C11.3108 0 11.6364 0.325774 11.6364 0.727638V2.8066C11.6364 3.20847 11.3108 3.53424 10.9091 3.53424H8.72729V5.09346H10.9091C13.7207 5.09346 16 7.37388 16 10.1869C16 13 13.7207 15.2804 10.9091 15.2804H5.09092C2.27928 15.2804 0 13 0 10.1869C0 7.37388 2.27928 5.09346 5.09092 5.09346H7.27274V2.8066C7.27274 2.40474 7.59835 2.07896 8.00001 2.07896H10.1818V0.727638C10.1818 0.325774 10.5074 0 10.9091 0ZM5.09092 6.54874C3.08261 6.54874 1.45455 8.17761 1.45455 10.1869C1.45455 12.1962 3.08261 13.8251 5.09092 13.8251H10.9091C12.9174 13.8251 14.5455 12.1962 14.5455 10.1869C14.5455 8.17761 12.9174 6.54874 10.9091 6.54874H5.09092Z" fill="white"/>
</svg>
