<svg width="15" height="15" viewBox="0 0 15 15" fill="none" xmlns="http://www.w3.org/2000/svg">
<path d="M7.49625 15C3.35607 15 0 11.6423 0 7.5C0 3.35775 3.35607 0 7.49625 0C11.6364 0 14.9925 3.35775 14.9925 7.5C14.9925 11.6423 11.6364 15 7.49625 15ZM7.49625 13.5C9.08676 13.5 10.6121 12.8679 11.7368 11.7426C12.8614 10.6174 13.4933 9.0913 13.4933 7.5C13.4933 5.9087 12.8614 4.38258 11.7368 3.25736C10.6121 2.13214 9.08676 1.5 7.49625 1.5C5.90575 1.5 4.38039 2.13214 3.25573 3.25736C2.13108 4.38258 1.49925 5.9087 1.49925 7.5C1.49925 9.0913 2.13108 10.6174 3.25573 11.7426C4.38039 12.8679 5.90575 13.5 7.49625 13.5ZM4.8898 3.83175L11.1627 10.1078C10.8707 10.5177 10.5125 10.8761 10.1027 11.1683L3.82984 4.89225C4.12187 4.48255 4.4801 4.1244 4.8898 3.8325V3.83175Z" fill="white"/>
</svg>
