<svg width="13" height="16" viewBox="0 0 13 16" fill="none" xmlns="http://www.w3.org/2000/svg">
<path fill-rule="evenodd" clip-rule="evenodd" d="M6.50001 1.44517C5.50282 1.44517 4.69445 2.25395 4.69445 3.25163V3.61292H8.30557V3.25163C8.30557 2.25395 7.49719 1.44517 6.50001 1.44517ZM9.75001 3.61292V3.25163C9.75001 1.45581 8.29494 0 6.50001 0C4.70508 0 3.25 1.45581 3.25 3.25163V3.61292H1.44445C0.646701 3.61292 0 4.25995 0 5.05809V14.4517C0 15.2498 0.646701 15.8969 1.44445 15.8969H11.5556C12.3533 15.8969 13 15.2498 13 14.4517V5.05809C13 4.25995 12.3533 3.61292 11.5556 3.61292H9.75001ZM8.30557 5.05809V5.78067C8.30557 6.17975 8.62892 6.50326 9.02779 6.50326C9.42666 6.50326 9.75001 6.17975 9.75001 5.78067V5.05809H11.5556V14.4517H1.44445V5.05809H3.25V5.78067C3.25 6.17975 3.57335 6.50326 3.97223 6.50326C4.3711 6.50326 4.69445 6.17975 4.69445 5.78067V5.05809H8.30557Z" fill="#B783EB"/>
</svg>
