<svg width="20" height="22" viewBox="0 0 20 22" fill="none" xmlns="http://www.w3.org/2000/svg">
<path d="M0.214853 13.2654C-0.0716177 11.7717 -0.0716177 10.2283 0.214853 8.73461C1.32053 8.87757 2.28676 8.47398 2.60153 7.63381C2.9173 6.79253 2.49395 5.75331 1.61937 4.99122C2.37346 3.71152 3.36188 2.6203 4.52103 1.78778C5.21034 2.75222 6.15266 3.22069 6.91468 2.87209C7.6767 2.52348 8.04227 1.45787 7.91178 0.237198C9.26477 -0.0790659 10.6628 -0.0790659 12.0158 0.237198C11.8863 1.45787 12.2518 2.52458 13.0129 2.87209C13.7749 3.22069 14.7162 2.75332 15.4065 1.78778C16.5657 2.6203 17.5541 3.71152 18.3082 4.99122C17.4346 5.75221 17.0102 6.79253 17.326 7.63381C17.6418 8.47508 18.607 8.87867 19.7127 8.73461C19.9992 10.2283 19.9992 11.7717 19.7127 13.2654C18.607 13.1224 17.6408 13.526 17.326 14.3662C17.0102 15.2075 17.4336 16.2467 18.3082 17.0088C17.5541 18.2885 16.5657 19.3797 15.4065 20.2122C14.7172 19.2478 13.7749 18.7793 13.0129 19.1279C12.2508 19.4765 11.8853 20.5421 12.0158 21.7628C10.6628 22.0791 9.26477 22.0791 7.91178 21.7628C8.04128 20.5421 7.67571 19.4754 6.91468 19.1279C6.15266 18.7793 5.21133 19.2467 4.52103 20.2122C3.36188 19.3797 2.37346 18.2885 1.61937 17.0088C2.49295 16.2478 2.9173 15.2075 2.60153 14.3662C2.28576 13.5249 1.32053 13.1213 0.214853 13.2654ZM1.9949 11.2309C3.09062 11.5663 3.99409 12.3328 4.44234 13.5249C4.88959 14.7181 4.74117 15.9663 4.18136 17.0572C4.27698 17.1693 4.3756 17.2782 4.4772 17.3838C5.46634 16.7657 6.59592 16.603 7.6767 17.0957C8.75648 17.5905 9.45077 18.588 9.75458 19.7976C9.89404 19.802 10.0335 19.802 10.1729 19.7976C10.4768 18.588 11.1711 17.5905 12.2508 17.0957C13.3316 16.6019 14.4622 16.7657 15.4503 17.3838C15.5519 17.2782 15.6506 17.1693 15.7462 17.0572C15.1864 15.9652 15.0389 14.7181 15.4852 13.5249C15.9334 12.3328 16.8369 11.5663 17.9326 11.2309C17.9366 11.077 17.9366 10.923 17.9326 10.7691C16.8369 10.4337 15.9334 9.66716 15.4852 8.47508C15.0379 7.2819 15.1864 6.03374 15.7462 4.94283C15.6502 4.8311 15.5515 4.72219 15.4503 4.61622C14.4612 5.23425 13.3316 5.39701 12.2508 4.90434C11.1711 4.40947 10.4768 3.41204 10.1729 2.20237C10.0335 2.19829 9.89402 2.19829 9.75458 2.20237C9.45077 3.41204 8.75648 4.40947 7.6767 4.90434C6.59592 5.39811 5.46534 5.23425 4.4772 4.61622C4.3756 4.72179 4.27698 4.83066 4.18136 4.94283C4.74117 6.03484 4.88859 7.2819 4.44234 8.47508C3.99409 9.66716 3.09062 10.4337 1.9949 10.7691C1.99091 10.923 1.99091 11.077 1.9949 11.2309ZM9.96377 14.2991C9.17121 14.2991 8.41112 13.9515 7.8507 13.3328C7.29028 12.7141 6.97544 11.875 6.97544 11C6.97544 10.125 7.29028 9.28588 7.8507 8.66717C8.41112 8.04847 9.17121 7.70089 9.96377 7.70089C10.7563 7.70089 11.5164 8.04847 12.0768 8.66717C12.6373 9.28588 12.9521 10.125 12.9521 11C12.9521 11.875 12.6373 12.7141 12.0768 13.3328C11.5164 13.9515 10.7563 14.2991 9.96377 14.2991ZM9.96377 12.0997C10.228 12.0997 10.4813 11.9838 10.6681 11.7776C10.8549 11.5714 10.9599 11.2917 10.9599 11C10.9599 10.7083 10.8549 10.4286 10.6681 10.2224C10.4813 10.0162 10.228 9.90029 9.96377 9.90029C9.69958 9.90029 9.44622 10.0162 9.25941 10.2224C9.07261 10.4286 8.96766 10.7083 8.96766 11C8.96766 11.2917 9.07261 11.5714 9.25941 11.7776C9.44622 11.9838 9.69958 12.0997 9.96377 12.0997Z" fill="white"/>
</svg>
