<svg width="11" height="16" viewBox="0 0 11 16" fill="none" xmlns="http://www.w3.org/2000/svg">
<path fill-rule="evenodd" clip-rule="evenodd" d="M1.59285 0.299507C1.72964 0.111332 1.94816 0 2.18072 0H7.99599C8.22856 0 8.44708 0.111334 8.58387 0.299512C7.95985 0.753567 7.99019 0.731494 8.58387 0.299512L8.58562 0.301928L8.58833 0.305689L8.59653 0.317202C8.60322 0.326636 8.61229 0.339572 8.62354 0.355887C8.64603 0.38851 8.67725 0.434701 8.7154 0.493474C8.79165 0.610921 8.89601 0.779203 9.01409 0.990394C9.24942 1.4113 9.54367 2.01049 9.77713 2.7234C10.0031 3.41347 10.1767 4.22402 10.1767 5.0909C10.1767 5.80403 10.0248 6.48836 9.75195 7.11018C9.06212 8.68258 7.58994 9.8709 5.81527 10.1293V14.5454H8.7229C9.12436 14.5454 9.44981 14.871 9.44981 15.2727C9.44981 15.6744 9.12436 16 8.7229 16H1.45382C1.05236 16 0.726908 15.6744 0.726908 15.2727C0.726908 14.871 1.05236 14.5454 1.45382 14.5454H4.36145V10.1302C2.664 9.88729 1.23776 8.80614 0.513468 7.32182C0.184386 6.64731 0 5.88958 0 5.0909C0 4.12177 0.216974 3.22236 0.482453 2.48175C0.713909 1.83611 0.987231 1.29729 1.20279 0.91925C1.3109 0.729652 1.40538 0.578924 1.47419 0.473701C1.50863 0.421049 1.53672 0.37967 1.55697 0.35039C1.5671 0.335746 1.57528 0.324117 1.58132 0.315605L1.58875 0.305184L1.59123 0.301747L1.59215 0.300477L1.59285 0.299507ZM2.57467 1.45454C2.54124 1.5096 2.50459 1.57158 2.46557 1.64001C2.2811 1.96353 2.0474 2.42473 1.85092 2.97279M2.57467 1.45454H7.60204C7.64507 1.52541 7.69343 1.60774 7.74529 1.7005C7.94749 2.06213 8.19842 2.57422 8.39558 3.17629C8.53855 3.61285 8.65069 4.08899 8.69819 4.58392C8.46807 4.65315 8.1707 4.72893 7.83719 4.78162C7.04111 4.90738 6.15583 4.88357 5.46235 4.46727C4.33856 3.79266 3.04311 3.81647 2.11279 3.96344C1.9125 3.99508 1.7237 4.03328 1.55037 4.07388C1.62202 3.68573 1.72826 3.31498 1.85092 2.97279M1.81991 6.68369C1.65567 6.34704 1.54177 5.98103 1.48836 5.59493L1.81991 6.68369ZM1.48836 5.59493C1.71709 5.52651 2.01075 5.45212 2.33953 5.40018C3.13561 5.27442 4.02089 5.29824 4.71437 5.71453C5.83816 6.38914 7.13361 6.36533 8.06393 6.21836C8.2428 6.19011 8.41252 6.15662 8.57024 6.12086C8.52841 6.25903 8.47841 6.39411 8.42075 6.52551C7.85622 7.81232 6.57039 8.72726 5.08836 8.72726C3.6533 8.72726 2.41108 7.89518 1.81991 6.68369" fill="#B783EB"/>
</svg>
