<svg width="10" height="11" viewBox="0 0 10 11" fill="none" xmlns="http://www.w3.org/2000/svg">
<path d="M9.96321 8.20111V10.362C9.96328 10.5167 9.91018 10.6657 9.81465 10.7789C9.71911 10.8921 9.58824 10.9611 9.44845 10.9719C9.20656 10.9902 9.00896 11 8.85619 11C3.96481 11 0 6.62261 0 1.22222C0 1.05356 0.00830268 0.835389 0.0254616 0.568334C0.0352711 0.413994 0.0977398 0.269507 0.200263 0.164028C0.302785 0.0585486 0.43773 -6.99313e-05 0.577866 1.56799e-07H2.53508C2.60374 -7.65933e-05 2.66997 0.028025 2.72091 0.0788458C2.77186 0.129667 2.80387 0.199578 2.81073 0.275C2.82346 0.415556 2.83509 0.527389 2.84616 0.612333C2.95616 1.4599 3.18159 2.28423 3.5148 3.05739C3.56738 3.17961 3.53307 3.32567 3.43343 3.40389L2.23896 4.34622C2.96929 6.22505 4.32545 7.72233 6.02719 8.52867L6.8796 7.21233C6.91444 7.15856 6.96527 7.11998 7.02323 7.10334C7.08119 7.0867 7.14261 7.09305 7.19676 7.12128C7.89697 7.48847 8.64341 7.73674 9.41081 7.85767C9.48775 7.86989 9.58904 7.88333 9.71524 7.89678C9.78345 7.9045 9.84664 7.9399 9.89256 7.99613C9.93848 8.05236 9.96385 8.1254 9.96377 8.20111H9.96321Z" fill="white"/>
</svg>
