<svg width="16" height="16" viewBox="0 0 16 16" fill="none" xmlns="http://www.w3.org/2000/svg">
<path fill-rule="evenodd" clip-rule="evenodd" d="M0 7.99999C0 3.58172 3.57993 0 7.99599 0C12.4121 0 15.992 3.58172 15.992 7.99999C15.992 8.79625 15.534 9.31384 14.9942 9.62671C14.4957 9.91567 13.862 10.0742 13.3008 10.1958C13.1218 10.2345 12.9486 10.2699 12.7805 10.3042C12.3782 10.3864 12.0055 10.4625 11.6542 10.5647C11.1503 10.7113 10.8614 10.8689 10.7208 11.0277L10.1767 10.5454L10.7208 11.0277C10.513 11.2624 10.3798 11.5973 10.2929 12.0544C10.2309 12.3806 10.2019 12.7012 10.1705 13.049C10.156 13.2097 10.141 13.3762 10.1219 13.5516C10.0685 14.0438 9.97951 14.6476 9.68103 15.129C9.52084 15.3873 9.29789 15.6165 8.99413 15.7756C8.69443 15.9326 8.35687 16 7.99599 16C3.57993 16 0 12.4183 0 7.99999ZM7.99599 1.45454C4.38285 1.45454 1.45382 4.38504 1.45382 7.99999C1.45382 11.6149 4.38285 14.5454 7.99599 14.5454C8.17667 14.5454 8.27181 14.5121 8.3199 14.4869C8.36393 14.4639 8.40387 14.4295 8.44563 14.3622C8.55103 14.1922 8.62215 13.8961 8.67663 13.3945C8.68973 13.274 8.70192 13.1396 8.71489 12.9966C8.74913 12.6191 8.78878 12.182 8.86467 11.7827C8.97305 11.2125 9.17454 10.5805 9.63261 10.0632C10.0602 9.58029 10.6914 9.33004 11.2481 9.16804C11.6604 9.04807 12.125 8.95319 12.5496 8.86649C12.7042 8.8349 12.8536 8.8044 12.9932 8.77416C13.5621 8.65094 13.9874 8.52931 14.2654 8.36815C14.5022 8.23089 14.5382 8.12838 14.5382 7.99999C14.5382 4.38504 11.6091 1.45454 7.99599 1.45454ZM7.63254 4.36363C7.63254 3.35946 8.44614 2.54545 9.44981 2.54545C10.4535 2.54545 11.2671 3.35946 11.2671 4.36363C11.2671 5.3678 10.4535 6.18181 9.44981 6.18181C8.44614 6.18181 7.63254 5.3678 7.63254 4.36363ZM9.44981 3.99999C9.24906 3.99999 9.08635 4.16278 9.08635 4.36363C9.08635 4.56448 9.24906 4.72727 9.44981 4.72727C9.65056 4.72727 9.81326 4.56448 9.81326 4.36363C9.81326 4.16278 9.65056 3.99999 9.44981 3.99999ZM3.27109 5.81817C3.27109 4.814 4.08469 3.99999 5.08836 3.99999C6.09203 3.99999 6.90563 4.814 6.90563 5.81817C6.90563 6.82234 6.09203 7.63635 5.08836 7.63635C4.08469 7.63635 3.27109 6.82234 3.27109 5.81817ZM5.08836 5.45454C4.88761 5.45454 4.7249 5.61733 4.7249 5.81817C4.7249 6.01902 4.88761 6.18181 5.08836 6.18181C5.28911 6.18181 5.45181 6.01902 5.45181 5.81817C5.45181 5.61733 5.28911 5.45454 5.08836 5.45454ZM3.63454 10.5454C3.63454 9.54127 4.44814 8.72726 5.45181 8.72726C6.45548 8.72726 7.26908 9.54127 7.26908 10.5454C7.26908 11.5496 6.45548 12.3636 5.45181 12.3636C4.44814 12.3636 3.63454 11.5496 3.63454 10.5454ZM5.45181 10.1818C5.25107 10.1818 5.08836 10.3446 5.08836 10.5454C5.08836 10.7463 5.25107 10.9091 5.45181 10.9091C5.65256 10.9091 5.81527 10.7463 5.81527 10.5454C5.81527 10.3446 5.65256 10.1818 5.45181 10.1818Z" fill="white"/>
</svg>
