<svg width="16" height="16" viewBox="0 0 16 16" fill="none" xmlns="http://www.w3.org/2000/svg">
<path fill-rule="evenodd" clip-rule="evenodd" d="M12.7272 1.45527C12.1248 1.45527 11.6363 1.94393 11.6363 2.54672C11.6363 3.14951 12.1248 3.63817 12.7272 3.63817C13.3297 3.63817 13.8182 3.14951 13.8182 2.54672C13.8182 1.94393 13.3297 1.45527 12.7272 1.45527ZM10.1818 2.54672C10.1818 1.14021 11.3214 0 12.7272 0C14.1331 0 15.2727 1.14021 15.2727 2.54672C15.2727 3.95324 14.1331 5.09344 12.7272 5.09344C11.3214 5.09344 10.1818 3.95324 10.1818 2.54672ZM5.82458 2.18293C6.11584 2.1855 6.37747 2.36168 6.4895 2.63068L9.3788 9.56847L10.2191 7.04625C10.3089 6.77667 10.5474 6.58407 10.8297 6.55306C11.112 6.52205 11.3866 6.65832 11.5327 6.90198L15.8963 14.1783C16.0311 14.4031 16.0347 14.6831 15.9056 14.9112C15.7765 15.1393 15.5347 15.2803 15.2727 15.2803H0.727273C0.481837 15.2803 0.252956 15.1565 0.118617 14.951C-0.0157226 14.7455 -0.037397 14.486 0.0609787 14.261L5.15188 2.61889C5.26862 2.35191 5.53332 2.18037 5.82458 2.18293ZM1.83928 13.8251H13.9882L11.099 9.0073L10.1445 11.8723C10.0486 12.1601 9.78417 12.3582 9.48108 12.3693C9.17799 12.3804 8.89985 12.2021 8.7832 11.922L5.80186 4.76322L1.83928 13.8251Z" fill="white"/>
</svg>
