<svg width="14" height="17" viewBox="0 0 14 17" fill="none" xmlns="http://www.w3.org/2000/svg">
<path d="M5.05352 14.6655C5.43932 14.5702 7.7965 14.5373 8.18437 14.6218C8.51604 14.7011 8.87592 14.8921 8.88087 15.3201C8.86636 15.7278 8.6529 16.0921 8.35485 16.3257C7.96879 16.665 7.51365 16.8828 7.03617 16.9657C6.77205 17.007 6.51212 17.0115 6.25634 16.9766C5.77634 16.9071 5.3163 16.702 4.92328 16.3728C4.61916 16.1484 4.39734 15.7902 4.3734 15.383C4.36845 14.955 4.7238 14.754 5.05352 14.6655ZM6.49524 0.000529855C8.10489 -0.0219347 9.75885 0.794012 10.7517 2.17226C11.3957 3.05966 11.6968 3.951 11.7129 5.34287L11.7171 5.70497C11.7294 6.77242 11.9936 7.398 12.5672 8.11516C13.0018 8.64333 13.1466 9.32709 13.1552 10.071C13.1638 10.814 12.9497 11.5224 12.511 12.1013C11.936 12.796 11.119 13.2457 10.2808 13.3336C9.06624 13.4645 7.85069 13.5773 6.61789 13.5945C5.38431 13.6117 4.16776 13.5713 2.95011 13.4359C2.10941 13.3715 1.28221 12.9447 0.692092 12.2663C0.24018 11.6998 0.00899241 10.9976 0.000396795 10.2546C-0.00820871 9.51068 0.121521 8.82309 0.542941 8.28297C1.1175 7.54979 1.35017 6.91727 1.33782 5.84982L1.33363 5.48773C1.3171 4.05819 1.63083 3.11889 2.28856 2.19448C3.26675 0.84609 4.85021 0.0234882 6.42602 0.00149584L6.49524 0.000529855Z" fill="white"/>
</svg>
