<svg width="19" height="13" viewBox="0 0 19 13" fill="none" xmlns="http://www.w3.org/2000/svg">
<path d="M9.64935 0.103478C9.40235 0.248788 9.24837 0.525097 9.24837 0.825624V5.50526H0.775089C0.34724 5.50526 0 5.87514 0 6.33088C0 6.78663 0.34724 7.15651 0.775089 7.15651H9.24837V11.8361C9.24837 12.1378 9.40235 12.4141 9.64935 12.5583C9.89634 12.7047 10.1981 12.6948 10.4368 12.5352L18.6383 7.02991C18.8636 6.878 19 6.6149 19 6.33088C19 6.04687 18.8636 5.78377 18.6383 5.63186L10.4368 0.126596C10.3108 0.0429324 10.1671 0 10.0235 0C9.89531 0 9.76613 0.0352266 9.64935 0.103478Z" fill="white"/>
</svg>
