<svg width="16" height="15" viewBox="0 0 16 15" fill="none" xmlns="http://www.w3.org/2000/svg">
<path fill-rule="evenodd" clip-rule="evenodd" d="M5.16768 0.402227C5.29087 0.155716 5.5427 0 5.81817 0H10.1818C10.4573 0 10.7091 0.155716 10.8323 0.402227L11.7222 2.1829H14.1818C15.1859 2.1829 16 2.99734 16 4.00199V12.7336C16 13.7383 15.1859 14.5527 14.1818 14.5527H1.81818C0.814026 14.5527 0 13.7383 0 12.7336V4.00199C0 2.99734 0.814026 2.1829 1.81818 2.1829H4.27778L5.16768 0.402227ZM5.90401 2.1829H10.096L9.73232 1.45527H6.26765L5.90401 2.1829ZM1.81818 3.63817C1.61735 3.63817 1.45454 3.80106 1.45454 4.00199V12.7336C1.45454 12.9345 1.61735 13.0974 1.81818 13.0974H14.1818C14.3826 13.0974 14.5454 12.9345 14.5454 12.7336V4.00199C14.5454 3.80106 14.3826 3.63817 14.1818 3.63817H1.81818ZM4.36363 8.3678C4.36363 6.35848 5.99167 4.72963 7.99998 4.72963C10.0083 4.72963 11.6363 6.35848 11.6363 8.3678C11.6363 10.3771 10.0083 12.006 7.99998 12.006C5.99167 12.006 4.36363 10.3771 4.36363 8.3678ZM7.99998 6.1849C6.79499 6.1849 5.81817 7.16221 5.81817 8.3678C5.81817 9.57339 6.79499 10.5507 7.99998 10.5507C9.20497 10.5507 10.1818 9.57339 10.1818 8.3678C10.1818 7.16221 9.20497 6.1849 7.99998 6.1849Z" fill="white"/>
</svg>
