<svg width="13" height="17" viewBox="0 0 13 17" fill="none" xmlns="http://www.w3.org/2000/svg">
<path fill-rule="evenodd" clip-rule="evenodd" d="M9.90476 3.75886C9.90476 5.83482 8.3804 7.51771 6.5 7.51771C4.6196 7.51771 3.09524 5.83482 3.09524 3.75886C3.09524 1.6829 4.6196 0 6.5 0C8.3804 0 9.90476 1.6829 9.90476 3.75886ZM0.527217 16.4023C0.236043 16.4023 0 16.1662 0 15.8751C0 13.9066 0 12.9224 0.314871 12.1705C0.591836 11.5092 1.03378 10.9715 1.57737 10.6345C2.19534 10.2514 3.0043 10.2514 4.62222 10.2514H8.37778C9.9957 10.2514 10.8047 10.2514 11.4226 10.6345C11.9662 10.9715 12.4082 11.5092 12.6851 12.1705C13 12.9224 13 13.9066 13 15.8751C13 16.1662 12.764 16.4023 12.4728 16.4023H0.527217Z" fill="white"/>
</svg>
