<svg width="16" height="16" viewBox="0 0 16 16" fill="none" xmlns="http://www.w3.org/2000/svg">
<path fill-rule="evenodd" clip-rule="evenodd" d="M15.9742 0.567778C16.0624 0.959638 15.8163 1.34878 15.4246 1.43695L11.6306 2.29104V7.27279H15.2651C15.6665 7.27279 15.992 7.5984 15.992 8.00005C15.992 10.1505 15.3424 12.1579 13.9825 13.6353C12.6135 15.1224 10.591 16 7.99606 16C5.40115 16 3.37859 15.1224 2.00963 13.6353C0.64968 12.1579 0.000157509 10.1505 0.000157509 8.00005C0.000157509 7.5984 0.325602 7.27279 0.727057 7.27279H1.45396V4.58192L0.886621 4.70963C0.494957 4.7978 0.106011 4.55161 0.0178868 4.15975C-0.0702377 3.76789 0.17583 3.37875 0.567494 3.29058L1.45396 3.09103V2.90921C1.45396 2.50755 1.7794 2.18195 2.18086 2.18195C2.53363 2.18195 2.82771 2.43337 2.89384 2.76689L4.36156 2.43649V2.18195C4.36156 1.78029 4.687 1.45468 5.08846 1.45468C5.46565 1.45468 5.77574 1.74212 5.81185 2.11001L7.26916 1.78195V1.45468C7.26916 1.05303 7.5946 0.727421 7.99606 0.727421C8.39751 0.727421 8.72296 1.05303 8.72296 1.45468L10.1768 1.12742V0.727421C10.1768 0.325764 10.5022 0.000157588 10.9037 0.000157588C11.3051 0.000157588 11.6306 0.325764 11.6306 0.727421V0.800147L15.1055 0.0178957C15.4972 -0.0702728 15.8861 0.175918 15.9742 0.567778ZM10.1768 2.61831L8.72296 2.94557V7.27279H10.1768V2.61831ZM1.48329 8.72732C1.61134 10.2886 2.15651 11.6478 3.079 12.6499C4.13303 13.7949 5.74498 14.5454 7.99606 14.5454C10.2471 14.5454 11.8591 13.7949 12.9131 12.6499C13.8356 11.6478 14.3808 10.2886 14.5088 8.72732H1.48329ZM2.90776 7.27279H4.36156V3.92738L2.90776 4.25465V7.27279ZM5.81536 3.60011V7.27279H7.26916V3.27284L5.81536 3.60011Z" fill="#B783EB"/>
</svg>
