<svg width="12" height="12" viewBox="0 0 12 12" fill="none" xmlns="http://www.w3.org/2000/svg">
<path d="M0.588768 0H11.1866C11.3427 0 11.4925 0.0702379 11.6029 0.195262C11.7133 0.320286 11.7754 0.489856 11.7754 0.666667V11.3333C11.7754 11.5101 11.7133 11.6797 11.6029 11.8047C11.4925 11.9298 11.3427 12 11.1866 12H0.588768C0.432617 12 0.282862 11.9298 0.172446 11.8047C0.0620307 11.6797 0 11.5101 0 11.3333V0.666667C0 0.489856 0.0620307 0.320286 0.172446 0.195262C0.282862 0.0702379 0.432617 0 0.588768 0ZM5.29891 3.66667V8.33333H6.47645V3.66667H5.29891ZM5.13111 3.66667H3.88646L3.00507 6.40867L2.12369 3.66667H0.879031L2.4163 8.30933H3.59384L5.13111 3.66667ZM8.24275 7H9.12591C9.51628 7 9.89067 6.82441 10.1667 6.51184C10.4427 6.19928 10.5978 5.77536 10.5978 5.33333C10.5978 4.89131 10.4427 4.46738 10.1667 4.15482C9.89067 3.84226 9.51628 3.66667 9.12591 3.66667H7.06522V8.33333H8.24275V7ZM8.24275 5.66667V5H9.12591C9.20398 5 9.27886 5.03512 9.33407 5.09763C9.38927 5.16014 9.42029 5.24493 9.42029 5.33333C9.42029 5.42174 9.38927 5.50652 9.33407 5.56904C9.27886 5.63155 9.20398 5.66667 9.12591 5.66667H8.24275Z" fill="white"/>
</svg>
