<svg width="15" height="15" viewBox="0 0 15 15" fill="none" xmlns="http://www.w3.org/2000/svg">
<path d="M11.8315 10.7933L14.9925 13.9552L13.9482 15L10.7879 11.8374C9.61202 12.7805 8.14942 13.2935 6.64234 13.2913C2.97577 13.2913 0 10.3141 0 6.64566C0 2.97726 2.97577 0 6.64234 0C10.3089 0 13.2847 2.97726 13.2847 6.64566C13.2868 8.15349 12.7741 9.61682 11.8315 10.7933ZM10.351 10.2454C11.2876 9.28169 11.8107 7.98988 11.8086 6.64566C11.8086 3.7895 9.49634 1.47681 6.64234 1.47681C3.78761 1.47681 1.47608 3.7895 1.47608 6.64566C1.47608 9.50108 3.78761 11.8145 6.64234 11.8145C7.98589 11.8166 9.27705 11.2933 10.2403 10.3562L10.351 10.2454Z" fill="white"/>
</svg>
