<svg width="47" height="15" viewBox="0 0 47 15" fill="none" xmlns="http://www.w3.org/2000/svg">
<path d="M24.3072 4.71619C24.2804 6.77127 26.1915 7.91802 27.631 8.59989C29.1101 9.29943 29.6069 9.74807 29.601 10.3737C29.59 11.3311 28.4212 11.7537 27.3275 11.7701C25.4195 11.7989 24.31 11.2694 23.428 10.8689L22.7406 13.9953C23.6256 14.3916 25.2641 14.7373 26.9633 14.7525C30.9519 14.7525 33.5613 12.8387 33.5754 9.87156C33.591 6.10581 28.2167 5.89738 28.2534 4.2142C28.2661 3.70382 28.7671 3.15918 29.865 3.0207C30.4084 2.95074 31.9086 2.89721 33.6094 3.65849L34.2769 0.633692C33.3623 0.309976 32.1867 9.70279e-07 30.7231 9.70279e-07C26.969 9.70279e-07 24.3285 1.9398 24.3072 4.71619ZM40.6913 0.260544C39.963 0.260544 39.3493 0.673487 39.0753 1.30718L33.3779 14.5303H37.3635L38.1566 12.3997H43.027L43.4871 14.5303H47L43.9345 0.260544H40.6913ZM41.2489 4.11534L42.3991 9.47378H39.249L41.2489 4.11534ZM19.4749 0.260722L16.3332 14.5301H20.1312L23.2714 0.260366H19.4749V0.260722ZM13.8564 0.260366L9.90323 9.9731L8.30412 1.71477C8.11649 0.792873 7.37551 0.260544 6.55264 0.260544H0.0905117L0 0.674914C1.32665 0.954731 2.83395 1.40604 3.74715 1.88894C4.30601 2.18392 4.46536 2.44179 4.64896 3.14276L7.6777 14.5303H11.6912L17.8446 0.260544H13.8564" fill="#578DF5"/>
</svg>
