<svg width="19" height="16" viewBox="0 0 19 16" fill="none" xmlns="http://www.w3.org/2000/svg">
<path d="M9.56144 3.50329L8.812 2.62613C8.56383 2.33566 7.78074 1.64157 6.69858 1.27809C5.66333 0.930371 4.37145 0.884397 2.93394 1.79813L2.93366 1.79768C2.58789 2.02979 1.15766 3.02741 1.05584 4.95814L9.56144 3.50329ZM9.56144 3.50329L10.3778 2.62537M9.56144 3.50329L10.3778 2.62537M10.3778 2.62537C10.6414 2.34186 11.4662 1.65923 12.5655 1.29507C13.6191 0.946011 14.9005 0.891649 16.2489 1.76162L16.2515 1.7633M10.3778 2.62537L16.2515 1.7633M16.2515 1.7633C16.6415 2.01316 17.8739 2.95808 17.9473 4.69925C18.0067 6.21069 17.2006 7.69433 15.6458 9.35146C14.3614 10.7205 12.7029 12.0692 10.8963 13.5385C10.5104 13.8523 10.1178 14.1716 9.72058 14.4978L9.72058 14.4978M16.2515 1.7633L9.72058 14.4978M9.72058 14.4978L9.71701 14.5008M9.72058 14.4978L9.71701 14.5008M9.71701 14.5008C9.56329 14.6281 9.35505 14.7029 9.11869 14.7029C8.91462 14.7029 8.7151 14.6329 8.55578 14.4921M9.71701 14.5008L8.55578 14.4921M8.55578 14.4921C8.33829 14.2992 8.12536 14.1107 7.917 13.9261C5.66758 11.9341 3.95016 10.4132 2.77083 9.0142C1.50549 7.51319 0.985626 6.29489 1.05583 4.95829L8.55578 14.4921Z" stroke="white" stroke-width="2"/>
</svg>
