<svg width="16" height="16" viewBox="0 0 16 16" fill="none" xmlns="http://www.w3.org/2000/svg">
<path d="M5.0909 8.00398C5.49256 8.00398 5.81817 8.32976 5.81817 8.73162V9.45925H6.54544C6.9471 9.45925 7.27271 9.78503 7.27271 10.1869C7.27271 10.5887 6.9471 10.9145 6.54544 10.9145H5.81817V11.6422C5.81817 12.044 5.49256 12.3698 5.0909 12.3698C4.68924 12.3698 4.36363 12.044 4.36363 11.6422V10.9145H3.63636C3.23469 10.9145 2.90908 10.5887 2.90908 10.1869C2.90908 9.78503 3.23469 9.45925 3.63636 9.45925H4.36363V8.73162C4.36363 8.32976 4.68924 8.00398 5.0909 8.00398Z" fill="#B783EB"/>
<path fill-rule="evenodd" clip-rule="evenodd" d="M10.9091 8.00398C9.70408 8.00398 8.72725 8.9813 8.72725 10.1869C8.72725 11.3925 9.70408 12.3698 10.9091 12.3698C12.114 12.3698 13.0909 11.3925 13.0909 10.1869C13.0909 8.9813 12.114 8.00398 10.9091 8.00398ZM10.1818 10.1869C10.1818 9.78503 10.5074 9.45925 10.9091 9.45925C11.3107 9.45925 11.6363 9.78503 11.6363 10.1869C11.6363 10.5887 11.3107 10.9145 10.9091 10.9145C10.5074 10.9145 10.1818 10.5887 10.1818 10.1869Z" fill="#B783EB"/>
<path fill-rule="evenodd" clip-rule="evenodd" d="M10.9091 0C11.3107 0 11.6363 0.325773 11.6363 0.727635V2.80659C11.6363 3.20845 11.3107 3.53423 10.9091 3.53423H8.72725V5.09344H10.9091C13.7207 5.09344 16 7.37386 16 10.1869C16 12.9999 13.7207 15.2803 10.9091 15.2803H5.0909C2.27927 15.2803 0 12.9999 0 10.1869C0 7.37386 2.27927 5.09344 5.0909 5.09344H7.27271V2.80659C7.27271 2.40473 7.59832 2.07896 7.99998 2.07896H10.1818V0.727635C10.1818 0.325773 10.5074 0 10.9091 0ZM5.0909 6.54871C3.08259 6.54871 1.45454 8.17758 1.45454 10.1869C1.45454 12.1962 3.08259 13.8251 5.0909 13.8251H10.9091C12.9174 13.8251 14.5454 12.1962 14.5454 10.1869C14.5454 8.17758 12.9174 6.54871 10.9091 6.54871H5.0909Z" fill="#B783EB"/>
</svg>
