<svg width="12" height="12" viewBox="0 0 12 12" fill="none" xmlns="http://www.w3.org/2000/svg">
<path d="M0.588768 0H11.1866C11.3427 0 11.4925 0.0702379 11.6029 0.195262C11.7133 0.320286 11.7754 0.489856 11.7754 0.666667V11.3333C11.7754 11.5101 11.7133 11.6797 11.6029 11.8047C11.4925 11.9298 11.3427 12 11.1866 12H0.588768C0.432617 12 0.282862 11.9298 0.172446 11.8047C0.0620307 11.6797 0 11.5101 0 11.3333V0.666667C0 0.489856 0.0620307 0.320286 0.172446 0.195262C0.282862 0.0702379 0.432617 0 0.588768 0ZM5.92301 5.78867L2.14783 2.15867L1.38537 3.17467L5.93066 7.54467L10.3941 3.17133L9.624 2.16267L5.9236 5.78867H5.92301Z" fill="white"/>
</svg>
