<svg width="60" height="92" viewBox="0 0 60 92" fill="none" xmlns="http://www.w3.org/2000/svg">
<path d="M59.9999 23.1V62.6769C60.003 63.1103 59.9198 63.54 59.7551 63.9415C59.5905 64.3431 59.3475 64.7086 59.0401 65.0171C58.7328 65.3257 58.367 65.5713 57.9638 65.74C57.5605 65.9086 57.1277 65.997 56.6899 66H3.31C2.43271 66 1.5913 65.6552 0.970653 65.0414C0.350004 64.4276 0.000883472 63.5949 0 62.7264V3.2736C0 1.5015 1.49 0 3.32666 0H36.6666V19.8C36.6666 20.6752 37.0178 21.5146 37.6429 22.1335C38.268 22.7523 39.1159 23.1 39.9999 23.1H59.9999ZM59.9999 16.5H43.3333V0.00990007L59.9999 16.5ZM16.6666 16.5V23.1H26.6666V16.5H16.6666ZM16.6666 29.7V36.3H43.3333V29.7H16.6666ZM16.6666 42.9V49.5H43.3333V42.9H16.6666Z" fill="#4C407B"/>
<circle cx="30" cy="73" r="17.5" fill="#03000C" stroke="#4C407B" stroke-width="3"/>
<path d="M31.3357 70.1102V80H29.6643V70.1102L25.1817 74.4685L24 73.3196L30.5 67L37 73.3196L35.8183 74.4685L31.3357 70.1102Z" fill="white"/>
</svg>
