<svg width="13" height="16" viewBox="0 0 13 16" fill="none" xmlns="http://www.w3.org/2000/svg">
<path fill-rule="evenodd" clip-rule="evenodd" d="M2.90763 3.27272C2.90763 1.46525 4.37215 0 6.17872 0C7.9853 0 9.44981 1.46525 9.44981 3.27272V7.99999C9.44981 9.80747 7.9853 11.2727 6.17872 11.2727C4.37215 11.2727 2.90763 9.80747 2.90763 7.99999V3.27272ZM6.17872 1.45454C5.17507 1.45454 4.36145 2.26857 4.36145 3.27272V7.99999C4.36145 9.00414 5.17507 9.81817 6.17872 9.81817C7.18238 9.81817 7.99599 9.00414 7.99599 7.99999V3.27272C7.99599 2.26857 7.18237 1.45454 6.17872 1.45454ZM0.726908 6.90908C1.12837 6.90908 1.45382 7.23469 1.45382 7.63635C1.45382 10.2472 3.56922 12.3636 6.17872 12.3636C8.78822 12.3636 10.9036 10.2472 10.9036 7.63635C10.9036 7.23469 11.2291 6.90908 11.6305 6.90908C12.032 6.90908 12.3574 7.23469 12.3574 7.63635C12.3574 10.8044 9.9755 13.4159 6.90563 13.7758V15.2727C6.90563 15.6744 6.58018 16 6.17872 16C5.77726 16 5.45181 15.6744 5.45181 15.2727V13.7758C2.38195 13.4159 0 10.8044 0 7.63635C0 7.23469 0.325448 6.90908 0.726908 6.90908Z" fill="#B783EB"/>
</svg>
