<svg width="14" height="14" viewBox="0 0 14 14" fill="none" xmlns="http://www.w3.org/2000/svg">
<path d="M1.3993 4.2H12.5937V13.3C12.5937 13.4857 12.52 13.6637 12.3888 13.795C12.2576 13.9263 12.0796 14 11.8941 14H2.09895C1.91339 14 1.73543 13.9263 1.60422 13.795C1.47301 13.6637 1.3993 13.4857 1.3993 13.3V4.2ZM3.49825 2.1V0.7C3.49825 0.514348 3.57196 0.336301 3.70317 0.205025C3.83438 0.0737498 4.01234 0 4.1979 0H9.7951C9.98066 0 10.1586 0.0737498 10.2898 0.205025C10.421 0.336301 10.4948 0.514348 10.4948 0.7V2.1H13.993V3.5H0V2.1H3.49825ZM4.89755 1.4V2.1H9.09545V1.4H4.89755ZM4.89755 7V11.2H6.29685V7H4.89755ZM7.69615 7V11.2H9.09545V7H7.69615Z" fill="white"/>
</svg>
