<svg width="14" height="13" viewBox="0 0 14 13" fill="none" xmlns="http://www.w3.org/2000/svg">
<path d="M9.11185e-07 4.329C-0.000357223 3.76004 0.104859 3.19659 0.309625 2.67092C0.514391 2.14524 0.814684 1.66768 1.19331 1.26556C1.57193 0.863441 2.02145 0.544674 2.51612 0.327512C3.01079 0.110349 3.5409 -0.000943953 4.07609 6.03073e-06H9.51087C11.7615 6.03073e-06 13.587 1.94639 13.587 4.329V13H4.07609C1.82541 13 9.11185e-07 11.0536 9.11185e-07 8.671V4.329ZM8.15217 5.77778V7.22223H9.51087V5.77778H8.15217ZM4.07609 5.77778V7.22223H5.43478V5.77778H4.07609Z" fill="white"/>
</svg>
