<svg width="16" height="16" viewBox="0 0 16 16" fill="none" xmlns="http://www.w3.org/2000/svg">
<path fill-rule="evenodd" clip-rule="evenodd" d="M9.81774 2.54695C9.81774 1.14031 10.9575 0 12.3634 0C13.7693 0 14.9091 1.14031 14.9091 2.54695C14.9091 3.95358 13.7693 5.0939 12.3634 5.0939C10.9575 5.0939 9.81774 3.95358 9.81774 2.54695ZM12.3634 1.4554C11.7609 1.4554 11.2724 1.94411 11.2724 2.54695C11.2724 3.14979 11.7609 3.6385 12.3634 3.6385C12.966 3.6385 13.4544 3.14979 13.4544 2.54695C13.4544 1.94411 12.966 1.4554 12.3634 1.4554ZM6.30788 3.31397C6.48855 3.25138 6.68659 3.26249 6.85915 3.34489L10.8584 5.25459C11.0883 5.36441 11.2441 5.58664 11.2689 5.84038C11.2938 6.09413 11.1841 6.34237 10.9798 6.49475L7.81245 8.857L10.945 10.9202C11.1126 11.0306 11.2272 11.2054 11.2616 11.4032C11.2961 11.601 11.2472 11.8043 11.1268 11.9648L8.58412 15.354C8.34297 15.6754 7.88705 15.7404 7.56579 15.4991C7.24453 15.2578 7.17958 14.8017 7.42072 14.4803L9.49894 11.7102L6.14593 9.50184C5.94783 9.37136 5.82576 9.15245 5.81883 8.91526C5.81191 8.67807 5.921 8.4524 6.11116 8.31058L9.14401 6.04862L6.50186 4.78695L3.87337 5.69753C3.49378 5.82903 3.07952 5.62776 2.94809 5.24798C2.81665 4.86821 3.01782 4.45374 3.39741 4.32224L6.30788 3.31397ZM15.8027 4.76508C16.0778 5.05797 16.0635 5.5185 15.7707 5.79371L13.5893 7.84436C13.3605 8.05945 13.0196 8.10338 12.7438 7.95331L11.7686 7.42268C11.4157 7.23067 11.2852 6.7888 11.4771 6.43573C11.669 6.08267 12.1107 5.95211 12.4635 6.14412L12.9766 6.4233L14.7746 4.73305C15.0674 4.45785 15.5277 4.47219 15.8027 4.76508ZM5.8386 9.80664C6.15855 10.0496 6.22101 10.5061 5.97812 10.8262L4.89814 12.2496C4.83778 12.3291 4.7617 12.3954 4.67465 12.4442L1.08328 14.4597C0.732937 14.6563 0.28962 14.5315 0.0931068 14.181C-0.103406 13.8305 0.0213011 13.3869 0.371648 13.1903L3.83102 11.2489L4.8195 9.94622C5.06239 9.62612 5.51866 9.56362 5.8386 9.80664Z" fill="#B783EB"/>
</svg>
