<svg width="14" height="16" viewBox="0 0 14 16" fill="none" xmlns="http://www.w3.org/2000/svg">
<path d="M0.880965 14.4V9.6C0.880965 7.90261 1.50389 6.27475 2.6127 5.07452C3.72151 3.87428 5.22538 3.2 6.79348 3.2C8.36158 3.2 9.86545 3.87428 10.9743 5.07452C12.0831 6.27475 12.706 7.90261 12.706 9.6V14.4H13.4451V16H0.1419V14.4H0.880965ZM2.35909 9.6H3.83722C3.83722 8.75131 4.14868 7.93737 4.70309 7.33726C5.25749 6.73714 6.00943 6.4 6.79348 6.4V4.8C5.61741 4.8 4.4895 5.30571 3.65789 6.20589C2.82629 7.10606 2.35909 8.32696 2.35909 9.6ZM6.05441 0H7.53254V2.4H6.05441V0ZM12.5419 2.2464L13.587 3.3776L12.0201 5.0744L10.9744 3.9432L12.5419 2.2464ZM0 3.3776L1.04504 2.2464L2.61259 3.9424L1.56829 5.0752L0 3.3776Z" fill="white"/>
</svg>
