<svg width="13" height="15" viewBox="0 0 13 15" fill="none" xmlns="http://www.w3.org/2000/svg">
<path d="M11.9767 15H0.704509C0.517661 15 0.338467 14.921 0.206346 14.7803C0.0742248 14.6397 0 14.4489 0 14.25V0.75C0 0.551088 0.0742248 0.360322 0.206346 0.21967C0.338467 0.0790176 0.517661 0 0.704509 0H11.9767C12.1635 0 12.3427 0.0790176 12.4748 0.21967C12.6069 0.360322 12.6812 0.551088 12.6812 0.75V14.25C12.6812 14.4489 12.6069 14.6397 12.4748 14.7803C12.3427 14.921 12.1635 15 11.9767 15ZM2.81804 3V6H5.63607V3H2.81804ZM2.81804 7.5V9H9.86312V7.5H2.81804ZM2.81804 10.5V12H9.86312V10.5H2.81804ZM7.04509 3.75V5.25H9.86312V3.75H7.04509Z" fill="white"/>
</svg>
