<svg width="17" height="12" viewBox="0 0 17 12" fill="none" xmlns="http://www.w3.org/2000/svg">
<path d="M12.0779 3.9L16.013 1.1625C16.0696 1.12309 16.136 1.09987 16.2049 1.09538C16.2739 1.09088 16.3427 1.10528 16.404 1.137C16.4653 1.16872 16.5167 1.21654 16.5525 1.27526C16.5883 1.33398 16.6072 1.40134 16.6071 1.47V10.53C16.6072 10.5987 16.5883 10.666 16.5525 10.7247C16.5167 10.7835 16.4653 10.8313 16.404 10.863C16.3427 10.8947 16.2739 10.9091 16.2049 10.9046C16.136 10.9001 16.0696 10.8769 16.013 10.8375L12.0779 8.1V11.25C12.0779 11.4489 11.9983 11.6397 11.8568 11.7803C11.7152 11.921 11.5232 12 11.323 12H0.754867C0.554664 12 0.362661 11.921 0.221095 11.7803C0.0795304 11.6397 0 11.4489 0 11.25V0.75C0 0.551088 0.0795304 0.360322 0.221095 0.21967C0.362661 0.0790178 0.554664 0 0.754867 0H11.323C11.5232 0 11.7152 0.0790178 11.8568 0.21967C11.9983 0.360322 12.0779 0.551088 12.0779 0.75V3.9ZM3.01947 3V4.5H4.5292V3H3.01947Z" fill="white"/>
</svg>
