<svg width="15" height="16" viewBox="0 0 15 16" fill="none" xmlns="http://www.w3.org/2000/svg">
<path d="M5.7971 14.1984V11.52C5.7971 10.4936 6.51812 9.6864 7.58478 9.2256C6.89688 8.94316 6.16872 8.79901 5.43478 8.8C4.06522 8.8 2.8 9.2936 1.77754 10.128C2.09457 11.1179 2.62688 12.0067 3.32772 12.7164C4.02856 13.4261 4.8765 13.935 5.7971 14.1984ZM12.2319 11.2688C11.9457 10.8424 10.9928 10.4 9.78261 10.4C8.32899 10.4 7.24638 11.0376 7.24638 11.52V14.4C8.25206 14.4006 9.24057 14.1122 10.1147 13.5632C10.9888 13.0142 11.7185 12.2235 12.2319 11.2688ZM5.47101 7.6C5.90343 7.6 6.31814 7.41036 6.62391 7.07279C6.92967 6.73523 7.10145 6.27739 7.10145 5.8C7.10145 5.32261 6.92967 4.86477 6.62391 4.52721C6.31814 4.18964 5.90343 4 5.47101 4C5.0386 4 4.62389 4.18964 4.31812 4.52721C4.01236 4.86477 3.84058 5.32261 3.84058 5.8C3.84058 6.27739 4.01236 6.73523 4.31812 7.07279C4.62389 7.41036 5.0386 7.6 5.47101 7.6ZM9.78261 8.4C10.167 8.4 10.5356 8.23143 10.8074 7.93137C11.0792 7.63131 11.2319 7.22435 11.2319 6.8C11.2319 6.37565 11.0792 5.96869 10.8074 5.66863C10.5356 5.36857 10.167 5.2 9.78261 5.2C9.39824 5.2 9.02961 5.36857 8.75782 5.66863C8.48602 5.96869 8.33333 6.37565 8.33333 6.8C8.33333 7.22435 8.48602 7.63131 8.75782 7.93137C9.02961 8.23143 9.39824 8.4 9.78261 8.4ZM7.24638 16C3.2442 16 0 12.4184 0 8C0 3.5816 3.2442 0 7.24638 0C11.2486 0 14.4928 3.5816 14.4928 8C14.4928 12.4184 11.2486 16 7.24638 16Z" fill="white"/>
</svg>
