<svg width="15" height="15" viewBox="0 0 15 15" fill="none" xmlns="http://www.w3.org/2000/svg">
<path d="M3.33167 3.375V0.843749C3.33167 0.619973 3.41942 0.405362 3.57562 0.247128C3.73183 0.0888947 3.94368 0 4.16458 0H14.1596C14.3805 0 14.5923 0.0888947 14.7485 0.247128C14.9048 0.405362 14.9925 0.619973 14.9925 0.843749V10.7812C14.9925 11.005 14.9048 11.2196 14.7485 11.3779C14.5923 11.5361 14.3805 11.625 14.1596 11.625H11.6608V14.1562C11.6608 14.622 11.286 15 10.8221 15H0.838747C0.728908 15.0007 0.620021 14.9793 0.518343 14.9372C0.416664 14.8951 0.324199 14.8331 0.246259 14.7547C0.168319 14.6763 0.106441 14.5831 0.0641798 14.4804C0.0219187 14.3777 0.000107758 14.2675 0 14.1562L0.00249877 4.21875C0.00249877 3.753 0.377312 3.375 0.841246 3.375H3.33167ZM4.9975 3.375H11.6608V9.93749H13.3267V1.6875H4.9975V3.375Z" fill="white"/>
</svg>
