<svg width="13" height="17" viewBox="0 0 13 17" fill="none" xmlns="http://www.w3.org/2000/svg">
<path d="M6.34058 0L12.1295 1.411C12.286 1.44914 12.4259 1.54466 12.5262 1.68177C12.6265 1.81888 12.6811 1.9894 12.6812 2.16518V9.88241C12.6811 10.6457 12.5093 11.3971 12.1809 12.07C11.8525 12.7429 11.3777 13.3165 10.7987 13.7399L6.34058 17L1.88245 13.7399C1.30353 13.3166 0.828827 12.7431 0.500447 12.0703C0.172066 11.3976 0.000166515 10.6463 0 9.88318V2.16518C2.75025e-05 1.9894 0.0546966 1.81888 0.154985 1.68177C0.255273 1.54466 0.395185 1.44914 0.55163 1.411L6.34058 0ZM6.34058 4.63636C6.03042 4.63638 5.72893 4.74864 5.48286 4.95575C5.2368 5.16285 5.05991 5.45322 4.97964 5.78182C4.89936 6.11042 4.92018 6.4589 5.03886 6.7732C5.15755 7.0875 5.36747 7.35007 5.63607 7.52018V10.8182H7.04509L7.04579 7.52018C7.31445 7.35004 7.52439 7.0874 7.64307 6.77302C7.76174 6.45864 7.7825 6.11009 7.70214 5.78145C7.62177 5.4528 7.44476 5.16243 7.19858 4.95539C6.9524 4.74835 6.6508 4.63621 6.34058 4.63636Z" fill="white"/>
</svg>
