<svg width="12" height="15" viewBox="0 0 12 15" fill="none" xmlns="http://www.w3.org/2000/svg">
<path d="M9.8128 5H11.1212C11.2947 5 11.4611 5.07525 11.5838 5.20921C11.7064 5.34316 11.7754 5.52485 11.7754 5.71429V14.2857C11.7754 14.4752 11.7064 14.6568 11.5838 14.7908C11.4611 14.9247 11.2947 15 11.1212 15H0.654187C0.480686 15 0.314291 14.9247 0.191607 14.7908C0.068923 14.6568 0 14.4752 0 14.2857V5.71429C0 5.52485 0.068923 5.34316 0.191607 5.20921C0.314291 5.07525 0.480686 5 0.654187 5H1.96256V4.28571C1.96256 3.14907 2.3761 2.05898 3.1122 1.25526C3.8483 0.451529 4.84667 0 5.88768 0C6.92869 0 7.92706 0.451529 8.66316 1.25526C9.39926 2.05898 9.8128 3.14907 9.8128 4.28571V5ZM5.23349 10.5229V12.1429H6.54187V10.5229C6.7913 10.3656 6.98624 10.1229 7.09646 9.83237C7.20668 9.54183 7.22602 9.2197 7.15147 8.91594C7.07693 8.61217 6.91267 8.34376 6.68417 8.15232C6.45567 7.96087 6.1757 7.85711 5.88768 7.85711C5.59966 7.85711 5.31969 7.96087 5.09119 8.15232C4.86269 8.34376 4.69843 8.61217 4.62389 8.91594C4.54935 9.2197 4.56868 9.54183 4.6789 9.83237C4.78912 10.1229 4.98406 10.3656 5.23349 10.5229ZM8.50443 5V4.28571C8.50443 3.52795 8.22874 2.80123 7.738 2.26541C7.24727 1.72959 6.58169 1.42857 5.88768 1.42857C5.19368 1.42857 4.5281 1.72959 4.03736 2.26541C3.54663 2.80123 3.27093 3.52795 3.27093 4.28571V5H8.50443Z" fill="white"/>
</svg>
