<svg width="10" height="9" viewBox="0 0 10 9" fill="none" xmlns="http://www.w3.org/2000/svg">
<path fill-rule="evenodd" clip-rule="evenodd" d="M5.00008 3.84285C4.67508 3.84285 4.37008 3.9643 4.13508 4.19263C3.90508 4.41611 3.78008 4.71246 3.78508 5.01852V5.02338C3.78508 5.33916 3.91008 5.63551 4.14008 5.85898C4.37008 6.08246 4.67508 6.20391 5.00008 6.20391C5.67008 6.20391 6.21008 5.67437 6.21508 5.02338C6.21508 4.7076 6.09008 4.41125 5.86008 4.18777C5.63008 3.9643 5.32508 3.84285 5.00008 3.84285ZM7.80519 3.87684C7.55519 3.87684 7.35519 3.68251 7.35519 3.43961C7.35519 3.1967 7.55519 2.99751 7.80519 2.99751C8.05519 2.99751 8.26019 3.1967 8.26019 3.43961C8.26019 3.68251 8.05519 3.87684 7.80519 3.87684ZM6.38524 6.374C6.03024 6.71893 5.54023 6.93269 5.00023 6.93269C4.47523 6.93269 3.98523 6.73351 3.61023 6.374C3.24023 6.00964 3.03523 5.53354 3.03523 5.02343C3.03023 4.51819 3.23523 4.04209 3.60523 3.67773C3.98023 3.31336 4.47523 3.11418 5.00023 3.11418C5.52523 3.11418 6.02024 3.31336 6.39024 3.67287C6.76024 4.03723 6.96524 4.51819 6.96524 5.02343C6.96024 5.55297 6.74024 6.02907 6.38524 6.374ZM7.82002 1.63234C7.77502 1.63234 7.74002 1.60805 7.72002 1.57404L7.67002 1.46716C7.53502 1.19025 7.38002 0.86961 7.28502 0.685C7.05502 0.247766 6.66002 0.00485815 6.17501 0H3.82001C3.33501 0.00485815 2.94501 0.247766 2.71501 0.685C2.61501 0.879326 2.44501 1.22911 2.30501 1.51574L2.27501 1.57404C2.26001 1.61291 2.22001 1.63234 2.18001 1.63234C0.975002 1.63234 0 2.58454 0 3.7505V6.63624C0 7.8022 0.975002 8.7544 2.18001 8.7544H7.82002C9.02002 8.7544 10 7.8022 10 6.63624V3.7505C10 2.58454 9.02002 1.63234 7.82002 1.63234Z" fill="white"/>
</svg>
