<svg width="16" height="13" viewBox="0 0 16 13" fill="none" xmlns="http://www.w3.org/2000/svg">
<path d="M4.3637 8.73155C5.32879 8.73155 6.06776 8.90911 7.19714 9.38837L7.61296 9.57025L8.06722 9.7784L8.73527 10.0908L9.11995 10.2641C9.18102 10.291 9.24064 10.3169 9.29892 10.3419L9.63336 10.4804C10.4335 10.799 10.9802 10.9144 11.6364 10.9144C12.326 10.9144 13.0927 10.7303 13.8662 10.4208C14.1421 10.3104 14.3985 10.192 14.6276 10.0741L14.823 9.97L14.8985 9.92669C15.2429 9.71993 15.6897 9.83167 15.8963 10.1763C16.103 10.5209 15.9913 10.9678 15.6469 11.1746L15.4497 11.287L15.2048 11.4148C14.9818 11.5265 14.7126 11.6494 14.4064 11.7719C13.4755 12.1445 12.5376 12.3697 11.6364 12.3697C10.6713 12.3697 9.9323 12.1921 8.80292 11.7129L8.38711 11.531L7.93284 11.3229L7.26479 11.0104L6.88011 10.8371C6.81904 10.8102 6.75942 10.7843 6.70114 10.7593L6.3667 10.6209C5.56656 10.3023 5.01991 10.1868 4.3637 10.1868C3.6741 10.1868 2.90738 10.3709 2.13383 10.6805C1.85795 10.7909 1.60158 10.9093 1.37249 11.0272L1.17711 11.1312L1.10155 11.1746C0.757132 11.3813 0.310402 11.2696 0.10375 10.925C-0.102901 10.5804 0.00878182 10.1334 0.3532 9.92669L0.550352 9.81421L0.795261 9.68642C1.01828 9.57478 1.28743 9.45186 1.59363 9.32931C2.52461 8.95674 3.46242 8.73155 4.3637 8.73155Z" fill="#B783EB"/>
<path d="M4.3637 4.36578C5.32879 4.36578 6.06776 4.54334 7.19714 5.0226L7.61296 5.20448L8.06722 5.41262L8.73527 5.72504L9.11995 5.89837C9.18102 5.92526 9.24064 5.95117 9.29892 5.97612L9.63336 6.11461C10.4335 6.43321 10.9802 6.54866 11.6364 6.54866C12.326 6.54866 13.0927 6.36456 13.8662 6.05498C14.1421 5.94458 14.3985 5.82619 14.6276 5.70831L14.823 5.60422L14.8985 5.56091C15.2429 5.35416 15.6897 5.4659 15.8963 5.81049C16.103 6.15508 15.9913 6.60203 15.6469 6.80878L15.4497 6.92126L15.2048 7.04905C14.9818 7.16069 14.7126 7.28362 14.4064 7.40616C13.4755 7.77873 12.5376 8.00392 11.6364 8.00392C10.6713 8.00392 9.9323 7.82636 8.80292 7.3471L8.38711 7.16522L7.93284 6.95708L7.26479 6.64466L6.88011 6.47133C6.81904 6.44444 6.75942 6.41853 6.70114 6.39357L6.3667 6.25509C5.56656 5.93648 5.01991 5.82103 4.3637 5.82103C3.6741 5.82103 2.90738 6.00514 2.13383 6.31471C1.85795 6.42512 1.60158 6.5435 1.37249 6.66138L1.17711 6.76547L1.10155 6.80878C0.757132 7.01554 0.310402 6.9038 0.10375 6.55921C-0.102901 6.21462 0.00878182 5.76767 0.3532 5.56091L0.550352 5.44844L0.795261 5.32064C1.01828 5.20901 1.28743 5.08608 1.59363 4.96354C2.52461 4.59096 3.46242 4.36578 4.3637 4.36578Z" fill="#B783EB"/>
<path d="M4.3637 0C5.32879 0 6.06776 0.177564 7.19714 0.656821L7.61296 0.8387L8.06722 1.04685L8.73527 1.35926L9.11995 1.53259C9.18102 1.55948 9.24064 1.58539 9.29892 1.61035L9.63336 1.74883C10.4335 2.06744 10.9802 2.18289 11.6364 2.18289C12.326 2.18289 13.0927 1.99878 13.8662 1.68921C14.1421 1.5788 14.3985 1.46042 14.6276 1.34254L14.823 1.23845L14.8985 1.19514C15.2429 0.988382 15.6897 1.10012 15.8963 1.44471C16.103 1.7893 15.9913 2.23626 15.6469 2.44301L15.4497 2.55548L15.2048 2.68328C14.9818 2.79491 14.7126 2.91784 14.4064 3.04038C13.4755 3.41296 12.5376 3.63815 11.6364 3.63815C10.6713 3.63815 9.9323 3.46058 8.80292 2.98132L8.38711 2.79945L7.93284 2.5913L7.26479 2.27888L6.88011 2.10556C6.81904 2.07866 6.75942 2.05275 6.70114 2.0278L6.3667 1.88931C5.56656 1.57071 5.01991 1.45526 4.3637 1.45526C3.6741 1.45526 2.90738 1.63936 2.13383 1.94894C1.85795 2.05934 1.60158 2.17773 1.37249 2.29561L1.17711 2.3997L1.10155 2.44301C0.757132 2.64976 0.310402 2.53803 0.10375 2.19344C-0.102901 1.84884 0.00878182 1.40189 0.3532 1.19514L0.550352 1.08266L0.795261 0.954866C1.01828 0.843231 1.28743 0.720306 1.59363 0.597764C2.52461 0.225187 3.46242 0 4.3637 0Z" fill="#B783EB"/>
</svg>
