<svg width="15" height="13" viewBox="0 0 15 13" fill="none" xmlns="http://www.w3.org/2000/svg">
<path d="M11.7341 13C12.974 13 13.9216 11.9275 13.9216 10.6786V3.71429H0.928107V10.6786C0.928107 11.9275 1.87571 13 3.11566 13H11.7341ZM5.10459 5.57143H9.74513C9.8682 5.57143 9.98624 5.62034 10.0733 5.70741C10.1603 5.79449 10.2092 5.91258 10.2092 6.03571C10.2092 6.15885 10.1603 6.27694 10.0733 6.36401C9.98624 6.45108 9.8682 6.5 9.74513 6.5H5.10459C4.98152 6.5 4.86348 6.45108 4.77646 6.36401C4.68943 6.27694 4.64054 6.15885 4.64054 6.03571C4.64054 5.91258 4.68943 5.79449 4.77646 5.70741C4.86348 5.62034 4.98152 5.57143 5.10459 5.57143ZM0.742486 0C0.545566 0 0.356712 0.0782651 0.217469 0.217578C0.078226 0.356891 0 0.545839 0 0.742857L0 1.85714C0 2.05416 0.078226 2.24311 0.217469 2.38242C0.356712 2.52173 0.545566 2.6 0.742486 2.6H14.1072C14.3042 2.6 14.493 2.52173 14.6322 2.38242C14.7715 2.24311 14.8497 2.05416 14.8497 1.85714V0.742857C14.8497 0.545839 14.7715 0.356891 14.6322 0.217578C14.493 0.0782651 14.3042 0 14.1072 0H0.742486Z" fill="white"/>
</svg>
