<svg width="22" height="17" viewBox="0 0 22 17" fill="none" xmlns="http://www.w3.org/2000/svg">
<mask id="mask0_202_9930" style="mask-type:luminance" maskUnits="userSpaceOnUse" x="0" y="0" width="22" height="17">
<rect width="22" height="16.5082" fill="white"/>
</mask>
<g mask="url(#mask0_202_9930)">
<path fill-rule="evenodd" clip-rule="evenodd" d="M0 0H22V16.5082H0V0Z" fill="#E31D1C"/>
<path fill-rule="evenodd" clip-rule="evenodd" d="M0 1.37569V2.75137H22V1.37569H0ZM0 4.12706V5.50275H22V4.12706H0ZM0 8.25412V6.87844H22V8.25412H0ZM0 9.62981V11.0055H22V9.62981H0ZM0 13.7569V12.3812H22V13.7569H0ZM0 16.5082V15.1326H22V16.5082H0Z" fill="#F7FCFF"/>
<rect width="12.375" height="9.62981" fill="#2E42A5"/>
<path fill-rule="evenodd" clip-rule="evenodd" d="M1.42998 2.99043L2.15862 2.48262L2.72383 2.88973H2.4038L3.05097 3.46242L2.83238 4.26542H2.49002L2.15759 3.52792L1.87409 4.26542H1.0288L1.67597 4.83811L1.42997 5.7418L2.15861 5.23399L2.72382 5.6411H2.4038L3.05097 6.2138L2.83238 7.01679H2.49002L2.15759 6.27929L1.87409 7.01679H1.0288L1.67597 7.58949L1.42997 8.49318L2.15861 7.98537L2.86362 8.49318L2.64443 7.58949L3.21061 7.01679H2.94946L3.53361 6.60968L4.09882 7.01679H3.7788L4.42597 7.58949L4.17997 8.49318L4.90861 7.98537L5.61362 8.49318L5.39443 7.58949L5.96061 7.01679H5.69946L6.28361 6.60968L6.84882 7.01679H6.5288L7.17597 7.58949L6.92997 8.49318L7.65861 7.98537L8.36362 8.49318L8.14443 7.58949L8.71061 7.01679H8.44946L9.03361 6.60968L9.59882 7.01679H9.2788L9.92597 7.58949L9.67997 8.49318L10.4086 7.98537L11.1136 8.49318L10.8944 7.58949L11.4606 7.01679H10.74L10.4076 6.27929L10.1241 7.01679H9.7142L9.51943 6.2138L10.0856 5.6411H9.82446L10.4086 5.23399L11.1136 5.7418L10.8944 4.83811L11.4606 4.26542H10.74L10.4076 3.52792L10.1241 4.26542H9.7142L9.51943 3.46242L10.0856 2.88973H9.82446L10.4086 2.48262L11.1136 2.99043L10.8944 2.08674L11.4606 1.51404H10.74L10.4076 0.776542L10.1241 1.51404H9.2788L9.92597 2.08674L9.70738 2.88973H9.36502L9.03259 2.15223L8.74909 2.88973H8.3392L8.14443 2.08674L8.71061 1.51404H7.99002L7.65759 0.776542L7.37409 1.51404H6.5288L7.17597 2.08674L6.95738 2.88973H6.61502L6.28259 2.15223L5.99909 2.88973H5.5892L5.39443 2.08674L5.96061 1.51404H5.24003L4.90759 0.776542L4.62409 1.51404H3.7788L4.42597 2.08674L4.20738 2.88973H3.86503L3.53259 2.15223L3.24909 2.88973H2.83921L2.64444 2.08674L3.21062 1.51404H2.49004L2.15761 0.776542L1.8741 1.51404H1.02881L1.67598 2.08674L1.42998 2.99043ZM9.70738 5.6411L9.92597 4.83811L9.2788 4.26542H9.59882L9.03361 3.85831L8.44946 4.26542H8.71061L8.14443 4.83811L8.3392 5.6411H8.74909L9.03259 4.9036L9.36502 5.6411H9.70738ZM8.22382 5.6411L7.65861 5.23399L7.07446 5.6411H7.33561L6.76943 6.2138L6.9642 7.01679H7.37409L7.65759 6.27929L7.99002 7.01679H8.33238L8.55097 6.2138L7.9038 5.6411H8.22382ZM5.80097 6.2138L5.58238 7.01679H5.24003L4.90759 6.27929L4.62409 7.01679H4.2142L4.01943 6.2138L4.58561 5.6411H4.32446L4.90861 5.23399L5.47382 5.6411H5.1538L5.80097 6.2138ZM5.99909 5.6411H5.5892L5.39443 4.83811L5.96061 4.26542H5.69946L6.28361 3.85831L6.84882 4.26542H6.5288L7.17597 4.83811L6.95738 5.6411H6.61502L6.28259 4.9036L5.99909 5.6411ZM4.20738 5.6411L4.42597 4.83811L3.7788 4.26542H4.09882L3.53361 3.85831L2.94946 4.26542H3.21061L2.64443 4.83811L2.8392 5.6411H3.24909L3.53259 4.9036L3.86503 5.6411H4.20738ZM8.55097 3.46242L8.33238 4.26542H7.99002L7.65759 3.52792L7.37409 4.26542H6.9642L6.76943 3.46242L7.33561 2.88973H7.07446L7.65861 2.48262L8.22382 2.88973H7.9038L8.55097 3.46242ZM5.47382 2.88973L4.90861 2.48262L4.32446 2.88973H4.58561L4.01943 3.46242L4.2142 4.26542H4.62409L4.90759 3.52792L5.24003 4.26542H5.58238L5.80097 3.46242L5.1538 2.88973H5.47382Z" fill="#F7FCFF"/>
</g>
</svg>
