<svg width="13" height="12" viewBox="0 0 13 12" fill="none" xmlns="http://www.w3.org/2000/svg">
<path d="M12.0773 2H7.85024C6.88931 2 5.96774 2.42143 5.28826 3.17157C4.60878 3.92172 4.22705 4.93913 4.22705 6C4.22705 7.06087 4.60878 8.07828 5.28826 8.82843C5.96774 9.57857 6.88931 10 7.85024 10H12.0773V11.3333C12.0773 11.5101 12.0137 11.6797 11.9004 11.8047C11.7872 11.9298 11.6336 12 11.4734 12H0.603865C0.44371 12 0.290114 11.9298 0.176868 11.8047C0.0636213 11.6797 0 11.5101 0 11.3333V0.666667C0 0.489856 0.0636213 0.320286 0.176868 0.195262C0.290114 0.0702379 0.44371 0 0.603865 0H11.4734C11.6336 0 11.7872 0.0702379 11.9004 0.195262C12.0137 0.320286 12.0773 0.489856 12.0773 0.666667V2ZM7.85024 3.33333H12.6812V8.66667H7.85024C7.20962 8.66667 6.59524 8.38572 6.14225 7.88562C5.68927 7.38552 5.43478 6.70724 5.43478 6C5.43478 5.29276 5.68927 4.61448 6.14225 4.11438C6.59524 3.61428 7.20962 3.33333 7.85024 3.33333ZM7.85024 5.33333V6.66667H9.66184V5.33333H7.85024Z" fill="white"/>
</svg>
