<svg width="16" height="16" viewBox="0 0 16 16" fill="none" xmlns="http://www.w3.org/2000/svg">
<path d="M14.6137 2.1333H13.0436V3.19997H14.4929V14.9333H0.966308V3.19997H2.41558V2.1333H0.845535C0.732606 2.13538 0.621155 2.16201 0.517548 2.21165C0.41394 2.2613 0.320207 2.33299 0.2417 2.42263C0.163193 2.51227 0.101451 2.61811 0.0600013 2.7341C0.0185513 2.85009 -0.00179515 2.97396 0.000124179 3.09863V15.0346C-0.00179515 15.1593 0.0185513 15.2832 0.0600013 15.3992C0.101451 15.5152 0.163193 15.621 0.2417 15.7106C0.320207 15.8003 0.41394 15.872 0.517548 15.9216C0.621155 15.9713 0.732606 15.9979 0.845535 16H14.6137C14.7266 15.9979 14.838 15.9713 14.9416 15.9216C15.0452 15.872 15.139 15.8003 15.2175 15.7106C15.296 15.621 15.3577 15.5152 15.3992 15.3992C15.4406 15.2832 15.461 15.1593 15.4591 15.0346V3.09863C15.461 2.97396 15.4406 2.85009 15.3992 2.7341C15.3577 2.61811 15.296 2.51227 15.2175 2.42263C15.139 2.33299 15.0452 2.2613 14.9416 2.21165C14.838 2.16201 14.7266 2.13538 14.6137 2.1333Z" fill="url(#paint0_linear_202_9645)"/>
<path d="M2.89868 6.3999H3.86487V7.46657H2.89868V6.3999Z" fill="url(#paint1_linear_202_9645)"/>
<path d="M5.79724 6.3999H6.76342V7.46657H5.79724V6.3999Z" fill="url(#paint2_linear_202_9645)"/>
<path d="M8.69574 6.3999H9.66192V7.46657H8.69574V6.3999Z" fill="url(#paint3_linear_202_9645)"/>
<path d="M11.5943 6.3999H12.5605V7.46657H11.5943V6.3999Z" fill="url(#paint4_linear_202_9645)"/>
<path d="M2.89868 9.06665H3.86487V10.1333H2.89868V9.06665Z" fill="url(#paint5_linear_202_9645)"/>
<path d="M5.79724 9.06665H6.76342V10.1333H5.79724V9.06665Z" fill="url(#paint6_linear_202_9645)"/>
<path d="M8.69574 9.06665H9.66192V10.1333H8.69574V9.06665Z" fill="url(#paint7_linear_202_9645)"/>
<path d="M11.5943 9.06665H12.5605V10.1333H11.5943V9.06665Z" fill="url(#paint8_linear_202_9645)"/>
<path d="M2.89868 11.7334H3.86487V12.8001H2.89868V11.7334Z" fill="url(#paint9_linear_202_9645)"/>
<path d="M5.79724 11.7334H6.76342V12.8001H5.79724V11.7334Z" fill="url(#paint10_linear_202_9645)"/>
<path d="M8.69574 11.7334H9.66192V12.8001H8.69574V11.7334Z" fill="url(#paint11_linear_202_9645)"/>
<path d="M11.5943 11.7334H12.5605V12.8001H11.5943V11.7334Z" fill="url(#paint12_linear_202_9645)"/>
<path d="M3.86487 4.26667C3.99299 4.26667 4.11587 4.21048 4.20646 4.11046C4.29706 4.01044 4.34796 3.87478 4.34796 3.73333V0.533333C4.34796 0.391885 4.29706 0.256229 4.20646 0.15621C4.11587 0.0561903 3.99299 0 3.86487 0C3.73674 0 3.61387 0.0561903 3.52327 0.15621C3.43267 0.256229 3.38177 0.391885 3.38177 0.533333V3.73333C3.38177 3.87478 3.43267 4.01044 3.52327 4.11046C3.61387 4.21048 3.73674 4.26667 3.86487 4.26667Z" fill="url(#paint13_linear_202_9645)"/>
<path d="M11.5943 4.26667C11.7224 4.26667 11.8453 4.21048 11.9359 4.11046C12.0265 4.01044 12.0774 3.87478 12.0774 3.73333V0.533333C12.0774 0.391885 12.0265 0.256229 11.9359 0.15621C11.8453 0.0561903 11.7224 0 11.5943 0C11.4662 0 11.3433 0.0561903 11.2527 0.15621C11.1621 0.256229 11.1112 0.391885 11.1112 0.533333V3.73333C11.1112 3.87478 11.1621 4.01044 11.2527 4.11046C11.3433 4.21048 11.4662 4.26667 11.5943 4.26667Z" fill="url(#paint14_linear_202_9645)"/>
<path d="M5.31415 2.1333H10.1451V3.19997H5.31415V2.1333Z" fill="url(#paint15_linear_202_9645)"/>
<defs>
<linearGradient id="paint0_linear_202_9645" x1="7.72959" y1="2.1333" x2="7.72959" y2="16" gradientUnits="userSpaceOnUse">
<stop stop-color="#E4468A"/>
<stop offset="1" stop-color="#9A6BF2"/>
</linearGradient>
<linearGradient id="paint1_linear_202_9645" x1="3.38177" y1="6.3999" x2="3.38177" y2="7.46657" gradientUnits="userSpaceOnUse">
<stop stop-color="#E4468A"/>
<stop offset="1" stop-color="#9A6BF2"/>
</linearGradient>
<linearGradient id="paint2_linear_202_9645" x1="6.28033" y1="6.3999" x2="6.28033" y2="7.46657" gradientUnits="userSpaceOnUse">
<stop stop-color="#E4468A"/>
<stop offset="1" stop-color="#9A6BF2"/>
</linearGradient>
<linearGradient id="paint3_linear_202_9645" x1="9.17883" y1="6.3999" x2="9.17883" y2="7.46657" gradientUnits="userSpaceOnUse">
<stop stop-color="#E4468A"/>
<stop offset="1" stop-color="#9A6BF2"/>
</linearGradient>
<linearGradient id="paint4_linear_202_9645" x1="12.0774" y1="6.3999" x2="12.0774" y2="7.46657" gradientUnits="userSpaceOnUse">
<stop stop-color="#E4468A"/>
<stop offset="1" stop-color="#9A6BF2"/>
</linearGradient>
<linearGradient id="paint5_linear_202_9645" x1="3.38177" y1="9.06665" x2="3.38177" y2="10.1333" gradientUnits="userSpaceOnUse">
<stop stop-color="#E4468A"/>
<stop offset="1" stop-color="#9A6BF2"/>
</linearGradient>
<linearGradient id="paint6_linear_202_9645" x1="6.28033" y1="9.06665" x2="6.28033" y2="10.1333" gradientUnits="userSpaceOnUse">
<stop stop-color="#E4468A"/>
<stop offset="1" stop-color="#9A6BF2"/>
</linearGradient>
<linearGradient id="paint7_linear_202_9645" x1="9.17883" y1="9.06665" x2="9.17883" y2="10.1333" gradientUnits="userSpaceOnUse">
<stop stop-color="#E4468A"/>
<stop offset="1" stop-color="#9A6BF2"/>
</linearGradient>
<linearGradient id="paint8_linear_202_9645" x1="12.0774" y1="9.06665" x2="12.0774" y2="10.1333" gradientUnits="userSpaceOnUse">
<stop stop-color="#E4468A"/>
<stop offset="1" stop-color="#9A6BF2"/>
</linearGradient>
<linearGradient id="paint9_linear_202_9645" x1="3.38177" y1="11.7334" x2="3.38177" y2="12.8001" gradientUnits="userSpaceOnUse">
<stop stop-color="#E4468A"/>
<stop offset="1" stop-color="#9A6BF2"/>
</linearGradient>
<linearGradient id="paint10_linear_202_9645" x1="6.28033" y1="11.7334" x2="6.28033" y2="12.8001" gradientUnits="userSpaceOnUse">
<stop stop-color="#E4468A"/>
<stop offset="1" stop-color="#9A6BF2"/>
</linearGradient>
<linearGradient id="paint11_linear_202_9645" x1="9.17883" y1="11.7334" x2="9.17883" y2="12.8001" gradientUnits="userSpaceOnUse">
<stop stop-color="#E4468A"/>
<stop offset="1" stop-color="#9A6BF2"/>
</linearGradient>
<linearGradient id="paint12_linear_202_9645" x1="12.0774" y1="11.7334" x2="12.0774" y2="12.8001" gradientUnits="userSpaceOnUse">
<stop stop-color="#E4468A"/>
<stop offset="1" stop-color="#9A6BF2"/>
</linearGradient>
<linearGradient id="paint13_linear_202_9645" x1="3.86487" y1="0" x2="3.86487" y2="4.26667" gradientUnits="userSpaceOnUse">
<stop stop-color="#E4468A"/>
<stop offset="1" stop-color="#9A6BF2"/>
</linearGradient>
<linearGradient id="paint14_linear_202_9645" x1="11.5943" y1="0" x2="11.5943" y2="4.26667" gradientUnits="userSpaceOnUse">
<stop stop-color="#E4468A"/>
<stop offset="1" stop-color="#9A6BF2"/>
</linearGradient>
<linearGradient id="paint15_linear_202_9645" x1="7.72961" y1="2.1333" x2="7.72961" y2="3.19997" gradientUnits="userSpaceOnUse">
<stop stop-color="#E4468A"/>
<stop offset="1" stop-color="#9A6BF2"/>
</linearGradient>
</defs>
</svg>
