<svg width="17" height="15" viewBox="0 0 17 15" fill="none" xmlns="http://www.w3.org/2000/svg">
<path d="M8.5 0.603443C11.8252 0.603443 14.5208 2.89985 14.5208 5.73264C14.5208 7.53424 13.5449 9.35605 11.9133 11.1337C11.3342 11.7647 10.7045 12.3529 10.0593 12.8887C10.0061 12.9329 9.95388 12.9759 9.90256 13.0177L9.60651 13.2542L9.33627 13.4617L9.0949 13.6393L8.94748 13.7434C8.68881 13.9229 8.31808 13.9244 8.05751 13.7468L7.90338 13.6381L7.66311 13.4613L7.39336 13.2541L7.09745 13.0177L6.94071 12.8887C6.29553 12.3529 5.66576 11.7647 5.08669 11.1337C3.45512 9.35605 2.47918 7.53424 2.47918 5.73264C2.47918 2.89985 5.17478 0.603443 8.5 0.603443ZM8.5 1.81031C5.95719 1.81031 3.89584 3.56639 3.89584 5.73264C3.89584 7.21477 4.74781 8.80517 6.20271 10.3904C6.73987 10.9756 7.32746 11.5245 7.92961 12.0246L8.21487 12.257C8.30886 12.3322 8.40298 12.4074 8.5 12.4797L8.7851 12.2571L9.0704 12.0246C9.67255 11.5245 10.2601 10.9756 10.7973 10.3904C12.2522 8.80517 13.1042 7.21477 13.1042 5.73264C13.1042 3.56639 11.0428 1.81031 8.5 1.81031ZM8.5 3.3189C10.0648 3.3189 11.3333 4.39957 11.3333 5.73264C11.3333 7.06571 10.0648 8.14638 8.5 8.14638C6.9352 8.14638 5.66667 7.06571 5.66667 5.73264C5.66667 4.39957 6.9352 3.3189 8.5 3.3189ZM8.5 4.52577C7.7176 4.52577 7.08334 5.06611 7.08334 5.73264C7.08334 6.39918 7.7176 6.93951 8.5 6.93951C9.2824 6.93951 9.91667 6.39918 9.91667 5.73264C9.91667 5.06611 9.2824 4.52577 8.5 4.52577Z" fill="white"/>
</svg>
