<svg width="16" height="16" viewBox="0 0 16 16" fill="none" xmlns="http://www.w3.org/2000/svg">
<path fill-rule="evenodd" clip-rule="evenodd" d="M0 7.99999C0 3.58172 3.57993 0 7.99599 0C12.4121 0 15.992 3.58172 15.992 7.99999C15.992 8.19287 15.9154 8.37786 15.7791 8.51425L8.50999 15.787C8.22612 16.071 7.76587 16.071 7.48199 15.787L0.212907 8.51425C0.0765847 8.37786 0 8.19287 0 7.99999ZM1.64645 6.41692C1.66958 6.40325 1.69258 6.38988 1.71545 6.37681C2.14104 6.13349 2.59489 5.95041 3.0398 5.95041C3.48471 5.95041 3.93856 6.13349 4.36415 6.37681C4.66331 6.54784 4.98471 6.76994 5.32712 7.03805C6.15342 6.34924 7.04458 5.95041 7.99599 5.95041C8.94741 5.95041 9.83857 6.34924 10.6649 7.03805C11.0073 6.76994 11.3287 6.54784 11.6278 6.37681C12.0534 6.13349 12.5073 5.95041 12.9522 5.95041C13.3971 5.95041 13.8509 6.13349 14.2765 6.37681C14.2994 6.38988 14.3224 6.40326 14.3455 6.41693C13.638 3.56683 11.0635 1.45454 7.99599 1.45454C4.92845 1.45454 2.35401 3.56682 1.64645 6.41692ZM14.1794 8.05769C13.9462 7.88284 13.7384 7.74443 13.5552 7.6397C13.2099 7.44225 13.0212 7.40495 12.9522 7.40495C12.8831 7.40495 12.6945 7.44225 12.3491 7.6397C12.0511 7.81009 11.6878 8.06964 11.2564 8.43019L9.79889 12.4404L14.1794 8.05769ZM7.99599 13.1446L9.79171 8.20388C9.12573 7.63149 8.52884 7.40495 7.99599 7.40495C7.46314 7.40495 6.86625 7.63149 6.20027 8.20388L7.99599 13.1446ZM4.73557 8.43019C4.30415 8.06964 3.94088 7.81009 3.64286 7.6397C3.29748 7.44225 3.10886 7.40495 3.0398 7.40495C2.97074 7.40495 2.78211 7.44225 2.43674 7.6397C2.25356 7.74443 2.04573 7.88284 1.81258 8.05769L6.1931 12.4404L4.73557 8.43019Z" fill="#B783EB"/>
</svg>
