<svg width="17" height="22" viewBox="0 0 17 22" fill="none" xmlns="http://www.w3.org/2000/svg">
<path d="M5.29209 5.34586C5.29209 5.34586 4.1579 4.72904 8.27189 4.72904C9.74526 4.72904 11.1855 5.21138 12.4106 6.11507C13.6357 7.01877 14.5905 8.30322 15.1543 9.806C15.7182 11.3088 15.8657 12.9624 15.5782 14.5578C15.2908 16.1531 14.5813 17.6185 13.5395 18.7687C12.4976 19.9189 11.1703 20.7022 9.72521 21.0195C8.28015 21.3368 6.78231 21.174 5.42109 20.5515C4.05987 19.929 2.89642 18.8749 2.07786 17.5224C1.2593 16.17 0.822394 14.5799 0.822394 12.9533" stroke="white" stroke-width="1.6" stroke-miterlimit="10" stroke-linecap="round"/>
<path d="M8.27187 0.822474L4.54712 4.9346L8.27187 9.04672" stroke="white" stroke-width="1.6" stroke-miterlimit="10" stroke-linecap="round"/>
</svg>
