<svg width="23" height="14" viewBox="0 0 23 14" fill="none" xmlns="http://www.w3.org/2000/svg">
<path d="M22.9092 7.00002C22.9092 7.46208 22.5576 7.84395 22.1015 7.90438L21.9747 7.91272L11.7588 7.91257L11.758 13.0859C11.758 13.762 11.0402 14.1887 10.4369 13.9173L10.3254 13.8581L0.436318 7.77221C-0.145425 7.4142 -0.145425 6.58584 0.436318 6.22783L10.3254 0.141971C10.9476 -0.24098 11.758 0.195805 11.758 0.914165L11.7588 6.0862L21.9747 6.08733C22.4908 6.08733 22.9092 6.49595 22.9092 7.00002ZM9.89006 11.4305L9.88924 7.01817C9.88912 7.01213 9.88906 7.00608 9.88906 7.00002L9.8904 6.98475L9.89006 2.5676L2.68851 6.99966L9.89006 11.4305Z" fill="white"/>
</svg>
