<svg width="17" height="15" viewBox="0 0 17 15" fill="none" xmlns="http://www.w3.org/2000/svg">
<path d="M13.3975 11.992L13.3936 11.474L13.3975 12.5101V11.992ZM13.7382 11.992L14.2015 12.2237L14.5764 11.474H13.7382V11.992ZM12.7404 13.9875L12.4357 14.4065L12.9303 14.7662L13.2038 14.2192L12.7404 13.9875ZM9.99675 11.9921L10.3015 11.5731L10.1652 11.474H9.99675V11.9921ZM3.6264 0C1.6236 0 0 1.6236 0 3.6264H1.03612C1.03612 2.19583 2.19583 1.03612 3.6264 1.03612V0ZM13.3736 0H3.6264V1.03612H13.3736V0ZM17 3.6264C17 1.6236 15.3764 0 13.3736 0V1.03612C14.8042 1.03612 15.9639 2.19583 15.9639 3.6264H17ZM17 8.88375V3.6264H15.9639V8.88375H17ZM13.4014 12.5101C15.3914 12.4951 17 10.8773 17 8.88375H15.9639C15.9639 10.3077 14.8149 11.4633 13.3936 11.474L13.4014 12.5101ZM13.7382 11.474H13.3975V12.5101H13.7382V11.474ZM13.2038 14.2192L14.2015 12.2237L13.2748 11.7603L12.2771 13.7558L13.2038 14.2192ZM9.69205 12.4111L12.4357 14.4065L13.0451 13.5685L10.3015 11.5731L9.69205 12.4111ZM3.6264 12.5102H9.99675V11.474H3.6264V12.5102ZM0 8.88375C0 10.8866 1.6236 12.5102 3.6264 12.5102V11.474C2.19583 11.474 1.03612 10.3143 1.03612 8.88375H0ZM0 3.6264V8.88375H1.03612V3.6264H0ZM4.61265 3.78362C4.26931 3.78362 3.99098 4.06195 3.99098 4.40528H5.02709C5.02709 4.63418 4.84154 4.81973 4.61265 4.81973V3.78362ZM11.8885 3.78362H4.61265V4.81973H11.8885V3.78362ZM12.5102 4.40528C12.5102 4.06195 12.2318 3.78362 11.8885 3.78362V4.81973C11.6596 4.81973 11.474 4.63417 11.474 4.40528H12.5102ZM11.8885 5.02695C12.2318 5.02695 12.5102 4.74862 12.5102 4.40528H11.474C11.474 4.1764 11.6596 3.99084 11.8885 3.99084V5.02695ZM4.61265 5.02695H11.8885V3.99084H4.61265V5.02695ZM3.99098 4.40528C3.99098 4.74862 4.26931 5.02695 4.61265 5.02695V3.99084C4.84154 3.99084 5.02709 4.17639 5.02709 4.40528H3.99098ZM4.61265 7.27567C4.26931 7.27567 3.99098 7.55401 3.99098 7.89734H5.02709C5.02709 8.12623 4.84154 8.31179 4.61265 8.31179V7.27567ZM9.89301 7.27567H4.61265V8.31179H9.89301V7.27567ZM10.5147 7.89734C10.5147 7.55401 10.2364 7.27567 9.89301 7.27567V8.31179C9.66411 8.31179 9.47856 8.12623 9.47856 7.89734H10.5147ZM9.89301 8.51901C10.2363 8.51901 10.5147 8.24068 10.5147 7.89734H9.47856C9.47856 7.66845 9.66412 7.4829 9.89301 7.4829V8.51901ZM4.61265 8.51901H9.89301V7.4829H4.61265V8.51901ZM3.99098 7.89734C3.99098 8.24068 4.26931 8.51901 4.61265 8.51901V7.4829C4.84154 7.4829 5.02709 7.66845 5.02709 7.89734H3.99098Z" fill="white"/>
</svg>
